<svg width="24" height="24" viewBox="0 0 24 24" fill="none" xmlns="http://www.w3.org/2000/svg">
<path d="M19.0808 1.1475C18.5832 0.862961 18.0381 0.671101 17.472 0.581252C16.6917 0.464509 15.8968 0.659862 15.2595 1.125C15.042 1.24875 12.792 2.38875 11.9783 2.5575L4.42578 4.125L4.57578 4.875L6.33828 4.5H19.8758L20.2508 4.56L20.367 3.855C20.4546 3.32637 20.3783 2.7836 20.1484 2.29961C19.9184 1.81561 19.5459 1.41357 19.0808 1.1475Z" fill="#FEB64A"/>
<path d="M19.9994 19.1663C19.9538 19.1532 19.9138 19.1256 19.8854 19.0877C19.857 19.0498 19.8417 19.0036 19.8419 18.9563C19.8437 18.9375 19.8437 18.9187 19.8419 18.9C19.21 14.8938 19.0954 10.823 19.5006 6.7875L19.1256 6.75L18.7506 6.7125V6.75H5.25064V6.7125L4.87564 6.75L4.50064 6.7875C4.90937 10.8214 4.7972 14.891 4.16689 18.8963C4.16515 18.9162 4.16515 18.9363 4.16689 18.9563C4.16687 19.0041 4.15105 19.0506 4.1219 19.0886C4.09275 19.1266 4.05188 19.1539 4.00564 19.1663C3.5714 19.2929 3.19756 19.5722 2.95306 19.9528C2.70855 20.3333 2.60986 20.7894 2.67517 21.237C2.74048 21.6846 2.9654 22.0935 3.30845 22.3883C3.6515 22.6831 4.08957 22.844 4.54189 22.8413C4.74064 22.8413 4.91689 22.8413 5.10064 22.86C5.36096 22.8912 5.62407 22.8912 5.88439 22.86L7.65814 23.0888C9.10084 23.2728 10.5537 23.3655 12.0081 23.3663C13.4625 23.3655 14.9154 23.2728 16.3581 23.0888L18.1319 22.86C18.3922 22.8912 18.6553 22.8912 18.9156 22.86C19.0881 22.86 19.2906 22.8413 19.4744 22.8413C19.9264 22.8431 20.3638 22.6816 20.7062 22.3864C21.0485 22.0913 21.2727 21.6825 21.3376 21.2351C21.4024 20.7878 21.3034 20.3321 21.0589 19.952C20.8144 19.5718 20.4408 19.2928 20.0069 19.1663H19.9994Z" fill="#936A4A"/>
<path d="M19.9545 4.125H4.04698C3.26205 4.125 2.62573 4.76132 2.62573 5.54625V5.70375C2.62573 6.48868 3.26205 7.125 4.04698 7.125H19.9545C20.7394 7.125 21.3757 6.48868 21.3757 5.70375V5.54625C21.3757 4.76132 20.7394 4.125 19.9545 4.125Z" fill="#C8A569"/>
<path d="M17.2507 2.25C17.2507 2.04289 17.0828 1.875 16.8757 1.875C16.6686 1.875 16.5007 2.04289 16.5007 2.25C16.5007 2.45711 16.6686 2.625 16.8757 2.625C17.0828 2.625 17.2507 2.45711 17.2507 2.25Z" fill="#F9CA79"/>
<path d="M18.7507 2.625C18.7507 2.41789 18.5828 2.25 18.3757 2.25C18.1686 2.25 18.0007 2.41789 18.0007 2.625C18.0007 2.83211 18.1686 3 18.3757 3C18.5828 3 18.7507 2.83211 18.7507 2.625Z" fill="#F9CA79"/>
<path d="M17.6257 3.375C17.6257 3.16789 17.4578 3 17.2507 3C17.0436 3 16.8757 3.16789 16.8757 3.375C16.8757 3.58211 17.0436 3.75 17.2507 3.75C17.4578 3.75 17.6257 3.58211 17.6257 3.375Z" fill="#F9CA79"/>
<path d="M15.3419 14.85L14.7194 14.2238C14.482 13.9853 14.1997 13.7962 13.8888 13.6675C13.578 13.5387 13.2446 13.4729 12.9082 13.4738C12.7035 13.4756 12.4996 13.5007 12.3007 13.5488C12.4053 13.1221 12.3982 12.6757 12.28 12.2527C12.1617 11.8296 11.9364 11.4443 11.6257 11.1338L11.0032 10.5C10.9329 10.4302 10.8378 10.391 10.7388 10.391C10.6397 10.391 10.5447 10.4302 10.4744 10.5L10.3694 10.605C9.88988 11.0858 9.62061 11.7372 9.62061 12.4163C9.62061 13.0953 9.88988 13.7467 10.3694 14.2275L10.9919 14.85L11.6257 15.4838C12.1063 15.9621 12.7569 16.2307 13.435 16.2307C14.1132 16.2307 14.7637 15.9621 15.2444 15.4838L15.3494 15.3787C15.3842 15.3437 15.4117 15.3022 15.4303 15.2565C15.449 15.2108 15.4584 15.1619 15.4582 15.1125C15.457 15.0633 15.4461 15.0147 15.4261 14.9697C15.4062 14.9246 15.3776 14.884 15.3419 14.85Z" fill="#FFDE00"/>
<path d="M17.4871 12.6975L16.8759 12.075C16.6769 11.8768 16.4462 11.7133 16.1934 11.5912C16.4876 11.4068 16.7397 11.1626 16.9335 10.8745C17.1273 10.5864 17.2584 10.2608 17.3184 9.91875L17.4496 9.16875C17.4581 9.11998 17.4568 9.07002 17.4458 9.02175C17.4349 8.97348 17.4145 8.92785 17.3859 8.8875C17.3569 8.84665 17.3202 8.81201 17.2776 8.7856C17.2351 8.7592 17.1878 8.74157 17.1384 8.73375C16.6122 8.65292 16.0738 8.72813 15.5899 8.95008C15.1061 9.17203 14.6979 9.53097 14.4159 9.9825C14.2804 9.60918 14.0595 9.27272 13.7709 9L13.1484 8.37375C13.1135 8.3386 13.072 8.3107 13.0263 8.29166C12.9806 8.27263 12.9316 8.26283 12.8821 8.26283C12.8326 8.26283 12.7836 8.27263 12.7379 8.29166C12.6922 8.3107 12.6507 8.3386 12.6159 8.37375L12.5146 8.47875C12.2767 8.71659 12.088 8.99896 11.9593 9.30974C11.8305 9.62052 11.7643 9.95361 11.7643 10.29C11.7643 10.6264 11.8305 10.9595 11.9593 11.2703C12.088 11.581 12.2767 11.8634 12.5146 12.1012L13.1259 12.7087L13.7484 13.3312C13.9862 13.5691 14.2686 13.7578 14.5793 13.8866C14.8901 14.0153 15.2232 14.0816 15.5596 14.0816C15.896 14.0816 16.2291 14.0153 16.5399 13.8866C16.8506 13.7578 17.133 13.5691 17.3709 13.3312L17.4759 13.23C17.5117 13.1959 17.5405 13.155 17.5605 13.1097C17.5805 13.0644 17.5914 13.0156 17.5924 12.9661C17.5935 12.9166 17.5847 12.8674 17.5666 12.8213C17.5486 12.7752 17.5215 12.7331 17.4871 12.6975ZM13.0921 17.1L12.4696 16.4737C12.1583 16.1643 11.7727 15.9401 11.3498 15.8225C10.9269 15.705 10.4809 15.6981 10.0546 15.8025C10.1021 15.6034 10.1273 15.3997 10.1296 15.195C10.1307 14.8585 10.0649 14.5251 9.93619 14.2142C9.80745 13.9033 9.61826 13.621 9.3796 13.3837L8.75335 12.75C8.68309 12.6802 8.58805 12.641 8.48898 12.641C8.38991 12.641 8.29486 12.6802 8.2246 12.75L8.1196 12.8512C7.88172 13.0891 7.69301 13.3715 7.56427 13.6822C7.43552 13.993 7.36926 14.3261 7.36926 14.6625C7.36926 14.9989 7.43552 15.332 7.56427 15.6428C7.69301 15.9535 7.88172 16.2359 8.1196 16.4737L8.62585 16.9687L7.2196 18.375C7.19024 18.4043 7.16693 18.439 7.15104 18.4773C7.13514 18.5156 7.12695 18.5567 7.12695 18.5981C7.12695 18.6396 7.13514 18.6806 7.15104 18.7189C7.16693 18.7572 7.19024 18.792 7.2196 18.8212C7.24855 18.8505 7.283 18.8737 7.32098 18.8896C7.35896 18.9054 7.3997 18.9136 7.44085 18.9136C7.482 18.9136 7.52275 18.9054 7.56072 18.8896C7.5987 18.8737 7.63316 18.8505 7.6621 18.8212L9.0496 17.4338L9.36835 17.7525C9.85014 18.2302 10.5011 18.4982 11.1796 18.4982C11.8581 18.4982 12.5091 18.2302 12.9909 17.7525L13.0921 17.6475C13.1296 17.6124 13.1594 17.57 13.1799 17.5229C13.2003 17.4759 13.2108 17.4251 13.2108 17.3737C13.2108 17.3224 13.2003 17.2716 13.1799 17.2246C13.1594 17.1775 13.1296 17.1351 13.0921 17.1Z" fill="#FFDE00"/>
</svg>
