<svg xmlns="http://www.w3.org/2000/svg" enable-background="new 0 0 50 50" viewBox="0 0 50 50"><path fill="#83BD57" d="M38.5777,14.1793c-1.1628,2.3508-4.5689,6.3091-7.5823,7.2954l-3.4445,1.1365l-1.0281-1.0281
			c0,0,3.5576-3.6055,6.1175-4.3929C33.7964,16.8331,38.0188,15.1006,38.5777,14.1793z"/><path fill="#444445" d="M48.9546,16.2895c0,0,1.3959,1.6496-11.2937,7.931c0,0-20.3323,12.1871-25.6784,13.3968
			c-0.2044,0.0462-0.3908,0.1489-0.5398,0.2962c-0.1365,0.1349-0.2951,0.3115-0.3994,0.4907
			c-0.1739,0.2989,0.1235,0.6536,0.4519,0.5453c0.3123-0.103,0.7683-0.2522,1.1073-0.3582c0.1637-0.0512,0.334,0.0572,0.3566,0.2272
			l0.0574,0.4303c0.0162,0.1218-0.0496,0.239-0.1618,0.2891c-0.5567,0.2487-2.1982,0.8545-2.8842-0.2882
			c-0.2905-0.484-0.1602-1.1107,0.291-1.4498c1.8006-1.3533,7.4112-5.4369,11.5136-6.9646
			c1.1995-0.4467,0.0453,0.0553,20.7712-11.3734L48.9546,16.2895z"/><path fill="#83BD57" d="M38.873 36.362c-.1619-.0483-3.4496-1.0416-6.7787-4.0637-.6869-.6215-1.2579-1.3599-1.6909-2.1801l-1.701-3.2036.84-1.1867c0 0 4.1538 2.8988 5.3616 5.2893.1855.3661.3724.7303.5903 1.0779C36.2894 33.3595 38.044 36.0348 38.873 36.362zM15.6952 14.8721c2.5132.7498 6.9892 3.4397 8.4696 6.2437l1.7011 3.2036-.84 1.1867c0 0-4.1538-2.8988-5.3616-5.2893C19.1173 19.1375 16.6975 15.2677 15.6952 14.8721z"/><path fill="#696967" d="M48.9546,16.2895c0,0-0.9517-0.4441-2.0938,0c0,0-21.1282,8.7558-27.9171,11.7379
			c0,0-12.0093,4.3256-14.4651,5.6994c-0.2759,0.1543-0.5906,0.2248-0.9053,0.1947c-0.5254-0.0502-1.2321-0.2442-1.3597-0.9131
			C2.1893,32.8809,2.0819,32.786,1.952,32.786H1.2663c-0.1864,0-0.3157,0.1869-0.248,0.3606
			c0.2307,0.592,1.0191,1.6775,3.6798,1.3923c0.5783-0.062,1.1453-0.2032,1.6895-0.4086
			c3.3891-1.2791,19.0828-7.2021,19.5355-7.3718C25.923,26.7585,46.036,19.8426,48.9546,16.2895z"/><path fill="#EFEFED" d="M27.1443,26.3552v-2.689c-3.6259-1.8319-9.9558-2.3605-12.3094-1.7788
				c-2.2654,0.5599-3.3693,3.1889-2.248,5.2355c0.8012,1.4624,2.5636,2.9177,6.428,2.6563
				C19.015,29.7791,24.5858,29.7624,27.1443,26.3552z"/><path fill="#EFEFED" d="M27.1443,26.3587v-2.693c-3.5984-1.8141-9.9008-2.3735-12.3121-1.7745
				c-1.6025,0.3979-2.6193,1.8235-2.6856,3.3487c-0.0221,0.63,0.1105,1.282,0.442,1.8788c0.7958,1.4699,2.564,2.9177,6.4211,2.6635
				C19.0099,29.7821,24.5816,29.7617,27.1443,26.3587z"/><path fill="#DDDDDC" d="M16.2248,23.2616c3.5384-0.6271,7.1596,0.72,10.5766,1.0831c0.1089,0.0109,0.2287,0.0108,0.3429,0.0163
				v-0.6953c-3.5984-1.8141-9.9008-2.3735-12.3121-1.7745c-1.6025,0.3979-2.6193,1.8235-2.6856,3.3487
				c0.1879-0.0774,0.3647-0.2431,0.5415-0.3868C13.6939,24.0131,14.9428,23.4936,16.2248,23.2616z"/><path fill="#EFEFED" d="M27.1443,23.6453v2.689c1.0056,0.5081,3.9485,1.7658,8.7402,1.9377c0,0,1.8347,0.2698,3.5691-0.1589
				c2.2654-0.5599,3.3693-3.1889,2.248-5.2355c-0.8012-1.4624-2.5636-2.9177-6.428-2.6562
				C35.2737,20.2213,29.7028,20.2381,27.1443,23.6453z"/><path fill="#EFEFED" d="M27.1443,23.6417v2.693c1.0082,0.5083,3.9527,1.7646,8.7423,1.9403c0,0,1.8346,0.2652,3.5697-0.1658
				c1.6025-0.3979,2.6193-1.8235,2.6856-3.3487c0.0221-0.63-0.1105-1.282-0.442-1.8788c-0.7958-1.4699-2.564-2.9177-6.4211-2.6635
				C35.2788,20.2183,29.7071,20.2388,27.1443,23.6417z"/><path fill="#DDDDDC" d="M38.0638,26.7389c-1.7461,0.3095-3.5587,0.1326-5.3159-0.1657
				c-1.7461-0.2984-3.4924-0.7295-5.2606-0.9173c-0.1089-0.0109-0.2287-0.0108-0.3429-0.0163v0.6953
				c1.0082,0.5083,3.9527,1.7646,8.7423,1.9403c0,0,1.8346,0.2652,3.5697-0.1658c1.6025-0.3979,2.6193-1.8235,2.6856-3.3487
				c-0.1879,0.0774-0.3647,0.2431-0.5415,0.3868C40.5948,25.9874,39.3459,26.5068,38.0638,26.7389z"/><path fill="#EFEFED" d="M25.7894,25.0002h2.689c0.5081-1.0056,1.7658-3.9485,1.9377-8.7402c0,0,0.2698-1.8347-0.1589-3.5691
				c-0.5599-2.2654-3.1889-3.3693-5.2355-2.248C20.6081,12.8608,22.0963,22.227,25.7894,25.0002z"/><path fill="#EFEFED" d="M25.7859,25.0002h2.693c0.5083-1.0082,1.7646-3.9527,1.9403-8.7423
				c-0.0323-0.1006,1.0345-6.0575-3.5145-6.2553C20.8403,9.7896,21.133,21.4962,25.7859,25.0002z"/><path fill="#DDDDDC" d="M28.883,14.0807c0.3095,1.7461,0.1326,3.5587-0.1657,5.3159c-0.2984,1.7461-0.7295,3.4924-0.9173,5.2606
				c-0.0109,0.1089-0.0108,0.2287-0.0163,0.3429h0.6953c0.5083-1.0082,1.7646-3.9527,1.9403-8.7423
				c-0.0323-0.1006,1.0345-6.0575-3.5145-6.2553C27.0971,10.4695,28.4045,11.4368,28.883,14.0807z"/><path fill="#EFEFED" d="M28.4993,25.0002h-2.689c-1.8319,3.6259-2.3605,9.9558-1.7788,12.3094
				c0.5599,2.2654,3.1889,3.3693,5.2355,2.248c1.4624-0.8012,2.9177-2.5636,2.6563-6.428
				C31.9233,33.1296,31.9065,27.5587,28.4993,25.0002z"/><path fill="#EFEFED" d="M28.5028,25.0002h-2.693c-1.8141,3.5984-2.3735,9.9008-1.7745,12.3121
				c0.3979,1.6025,1.8235,2.6193,3.3487,2.6856c0.63,0.0221,1.282-0.1105,1.8788-0.442c1.4699-0.7958,2.9177-2.564,2.6635-6.4211
				C31.9262,33.1347,31.9058,27.563,28.5028,25.0002z"/><path fill="#DDDDDC" d="M25.4057,35.9197c-0.3095-1.7461-0.1326-3.5587,0.1657-5.3159c0.2984-1.7461,0.7295-3.4924,0.9173-5.2606
				c0.0109-0.1089,0.0108-0.2287,0.0163-0.3429h-0.6953c-1.8141,3.5984-2.3735,9.9008-1.7745,12.3121
				c0.3979,1.6025,1.8235,2.6193,3.3487,2.6856c-0.0774-0.1879-0.2431-0.3647-0.3868-0.5415
				C26.1572,38.4506,25.6377,37.2018,25.4057,35.9197z"/><path fill="#FAD086" d="M25.1143,21.3993c0.1898-0.2686,0.3954-0.5501,0.6989-0.6769c0.518-0.2164,1.1065,0.0995,1.5129,0.4867
				c1.1679,1.1128,1.5926,2.7967,1.7328,4.4037c0.0649,0.7432,0.022,1.6178-0.5832,2.0541
				c-0.4761,0.3432-1.1594,0.2704-1.661-0.0343s-0.8556-0.799-1.1659-1.2972s-0.5967-1.0212-1.0144-1.4335
				c-0.2683-0.2648-0.5924-0.4866-0.7755-0.8161C23.3744,23.2141,24.6683,22.0303,25.1143,21.3993z"/><path fill="#FFCA67" d="M28.4741,27.6634c-0.4752,0.3426-1.1604,0.2763-1.6578-0.0332c-0.3868-0.232-0.6852-0.5746-0.9504-0.9504
				c0.4089,0.0995,0.851,0.0663,1.1936-0.1768c0.6078-0.431,0.652-1.3041,0.5857-2.0556c-0.1216-1.3262-0.431-2.7077-1.1936-3.7687
				c0.3205,0.0884,0.6189,0.2984,0.8731,0.5305c1.1715,1.1162,1.5915,2.7962,1.7351,4.3987
				C29.1262,26.3593,29.0819,27.2324,28.4741,27.6634z"/></svg>