<svg xmlns="http://www.w3.org/2000/svg" data-name="Artboard 30" viewBox="0 0 64 64"><path fill="#5490f5" d="M48,29.223V12.767a2,2,0,0,0-.513-1.337L39.6,2.662A2,2,0,0,0,38.109,2H11.891a2,2,0,0,0-1.487.662L2.513,11.43A2,2,0,0,0,2,12.767V60a2,2,0,0,0,2,2H48Z"/><path fill="#81b4fc" d="M47.487 11.43L39.6 2.662A2 2 0 0038.109 2H15L10.452 7.489A2.754 2.754 0 0012.573 12H47.842A1.989 1.989 0 0047.487 11.43zM10.038 15A5.039 5.039 0 005 20.038V40.652H48V15z"/><rect width="40" height="14" x="5" y="12" fill="#ffd55d" rx="2"/><path fill="#fcfcf9" d="M11.658 14.447L10 17.764 8.342 14.446A1 1 0 007 14H7a1 1 0 00-.448 1.341L9 20.236V24h2V20.236l2.447-4.894A1 1 0 0013 14h0A1 1 0 0011.658 14.447zM15 15v8a1 1 0 001 1h4V22H17V20h3V18H17V16h3V14H16A1 1 0 0015 15zM33 16a1 1 0 011 1h2a3 3 0 10-3 3 1 1 0 11-1 1H30a3 3 0 103-3 1 1 0 010-2zM26 14H24a1 1 0 00-.976.783l-1.783 8.024A1 1 0 0022 24h0a1 1 0 001.193-.759L23.469 22h3.062l.276 1.241A1 1 0 0028 24h0a1 1 0 00.759-1.193l-1.783-8.024A1 1 0 0026 14zm-2.087 6l.889-4h.4l.889 4z"/><polygon fill="#fcfcf9" points="43 14 37 14 37 16 39 16 39 24 41 24 41 16 43 16 43 14"/><path fill="#ffd55d" d="M5,42V38a9,9,0,0,1,9-9h0a8.976,8.976,0,0,1,6.683,2.972,3.129,3.129,0,0,0,4.634,0A8.976,8.976,0,0,1,32,29h0a8.977,8.977,0,0,1,6.715,3.008,3.077,3.077,0,0,0,4.57,0A8.977,8.977,0,0,1,50,29h0a9,9,0,0,1,9,9v4Z"/><rect width="60" height="4" x="2" y="42" fill="#f6f8ff" rx="2"/><path fill="#e2e7f7" d="M5,46,6.562,58.5A4,4,0,0,0,10.531,62H53.469a4,4,0,0,0,3.969-3.5L59,46Z"/><path fill="#f6f8ff" d="M15.5,48.935a5.3,5.3,0,0,0-5.257,5.954l.818,6.542a4.113,4.113,0,0,0,.125.569H53.469a4,4,0,0,0,3.969-3.5l1.2-9.561Z" opacity=".5"/><polygon points="9 24 11 24 11 20.236 13.895 14.447 12.105 13.553 10 17.764 7.895 13.552 6.105 14.446 9 20.236 9 24"/><path d="M16 24h4V22H17V20h3V18H17V16h3V14H16a1 1 0 00-1 1v8A1 1 0 0016 24zM33 22a1 1 0 01-1-1H30a3 3 0 103-3 1 1 0 111-1h2a3 3 0 10-3 3 1 1 0 010 2zM23.469 22h3.062l.493 2.217 1.952-.434-2-9A1 1 0 0026 14H24a1 1 0 00-.976.783l-2 9 1.952.434zM24.8 16h.4l.889 4H23.913z"/><polygon points="39 24 41 24 41 16 43 16 43 14 37 14 37 16 39 16 39 24"/><path d="M60,41V38A10.011,10.011,0,0,0,50,28c-.336,0-.669.02-1,.053V12.768a2.993,2.993,0,0,0-.77-2.007L40.34,1.994A3,3,0,0,0,38.109,1H11.891a3,3,0,0,0-2.23.993L1.77,10.761A2.993,2.993,0,0,0,1,12.768V60a3,3,0,0,0,3,3H53.469a5.007,5.007,0,0,0,4.961-4.38L59.883,47H60a3,3,0,0,0,0-6Zm-2-3v3H6V38a8,8,0,0,1,13.941-5.357,4.13,4.13,0,0,0,6.118,0,8,8,0,0,1,11.91.031,4.078,4.078,0,0,0,6.062,0A8,8,0,0,1,58,38ZM3.256,12.1,11.148,3.33A1,1,0,0,1,11.891,3H38.109a1,1,0,0,1,.744.331l7.89,8.768a1,1,0,0,1,.257.669v15.7a10,10,0,0,0-4.461,2.875,2.146,2.146,0,0,1-3.078,0A10,10,0,0,0,24.574,31.3a2.179,2.179,0,0,1-3.148,0A10,10,0,0,0,4,38v3a2.966,2.966,0,0,0-1,.184V12.768A1,1,0,0,1,3.256,12.1ZM3,60V46.816A2.966,2.966,0,0,0,4,47h.117L5.57,58.62A4.956,4.956,0,0,0,6.545,61H4A1,1,0,0,1,3,60Zm53.446-1.628A3,3,0,0,1,53.469,61H10.531a3,3,0,0,1-2.977-2.628L6.133,47H57.867ZM60,45H4a1,1,0,0,1,0-2H60a1,1,0,0,1,0,2Z"/><path d="M7,27H43a3,3,0,0,0,3-3V14a3,3,0,0,0-3-3H7a3,3,0,0,0-3,3V24A3,3,0,0,0,7,27ZM6,14a1,1,0,0,1,1-1H43a1,1,0,0,1,1,1V24a1,1,0,0,1-1,1H7a1,1,0,0,1-1-1Z"/></svg>