<svg width="33" height="33" viewBox="0 0 33 33" fill="none" xmlns="http://www.w3.org/2000/svg">
<path d="M20.8676 8.73529H12.1323V32.0294H20.8676V8.73529Z" fill="#C6E2FA"/>
<path d="M15.044 0.970581H7.2793V2.91176H15.044V0.970581Z" fill="#C6E2FA"/>
<path d="M15.044 2.91174H7.2793L12.1322 8.73527H20.8675L15.044 2.91174Z" fill="#EAF4FE"/>
<path d="M12.1324 8.73529H2.42651V32.0294H12.1324V8.73529Z" fill="#84C5FA"/>
<path d="M8.99729 22.2362C8.04611 23.1874 6.50287 23.1874 5.5517 22.2362C4.78493 21.4694 4.61993 20.2756 5.15376 19.3244L7.27935 15.5294L9.40493 19.3244C9.93876 20.2756 9.77376 21.4597 8.99729 22.2362Z" fill="#EAF4FE"/>
<path d="M7.27945 2.91174L2.42651 8.73527H12.1324L7.27945 2.91174Z" fill="#0461FF"/>
<path d="M17.956 16.5L15.4325 21.9062C15.7916 22.2556 16.0148 22.7506 16.0148 23.2941C16.0148 24.3618 15.1413 25.2353 14.0736 25.2353C14.0057 25.2353 13.9475 25.2256 13.8892 25.2159L11.1619 32.0294H17.956L23.7795 16.5H17.956Z" fill="#FF7100"/>
<path d="M26.6815 22.7215C26.5359 22.77 26.3709 22.8088 26.2059 22.8088C25.4004 22.8088 24.7501 22.1585 24.7501 21.3529C24.7501 20.8191 25.0412 20.3629 25.4586 20.1106L23.7795 16.5L16.9854 32.0294H30.5736L26.6815 22.7215Z" fill="#FFAE00"/>
<path d="M20.8677 25.2353C21.9398 25.2353 22.8089 24.3662 22.8089 23.2941C22.8089 22.2221 21.9398 21.353 20.8677 21.353C19.7956 21.353 18.9265 22.2221 18.9265 23.2941C18.9265 24.3662 19.7956 25.2353 20.8677 25.2353Z" fill="#FF7100"/>
<path d="M20.8676 30.0882C21.4036 30.0882 21.8381 29.6537 21.8381 29.1176C21.8381 28.5816 21.4036 28.147 20.8676 28.147C20.3315 28.147 19.897 28.5816 19.897 29.1176C19.897 29.6537 20.3315 30.0882 20.8676 30.0882Z" fill="#FF7100"/>
<path d="M24.75 29.1176C25.8221 29.1176 26.6912 28.2485 26.6912 27.1765C26.6912 26.1044 25.8221 25.2353 24.75 25.2353C23.6779 25.2353 22.8088 26.1044 22.8088 27.1765C22.8088 28.2485 23.6779 29.1176 24.75 29.1176Z" fill="#FF7100"/>
</svg>
