<svg width="33" height="33" viewBox="0 0 33 33" fill="none" xmlns="http://www.w3.org/2000/svg">
<g clip-path="url(#clip0_187_10)">
<path d="M26.8125 13.9219C27.382 13.9219 27.8438 13.4602 27.8438 12.8906C27.8438 12.3211 27.382 11.8594 26.8125 11.8594C26.243 11.8594 25.7812 12.3211 25.7812 12.8906C25.7812 13.4602 26.243 13.9219 26.8125 13.9219Z" fill="#627C12"/>
<path d="M16.5 11.8594C25.3279 11.8594 32.4844 11.1668 32.4844 10.3125C32.4844 9.45818 25.3279 8.76562 16.5 8.76562C7.67207 8.76562 0.515625 9.45818 0.515625 10.3125C0.515625 11.1668 7.67207 11.8594 16.5 11.8594Z" fill="#995B3F"/>
<path d="M31.2676 1.77375C31.4583 1.87688 31.5047 2.16047 31.3707 2.41313L30.1074 4.80563C30.0352 4.72828 29.9579 4.65094 29.8702 4.58391C29.5196 4.30547 29.1277 4.14563 28.7358 4.08891L29.9991 1.69125C30.1332 1.4386 30.3962 1.31485 30.5818 1.41282L31.2676 1.77375Z" fill="#93621D"/>
<path d="M24.9717 29.8341C26.8331 29.5969 28.4367 29.3288 29.6793 29.1225L29.6175 29.535C29.555 29.9539 29.3651 30.3433 29.0736 30.6505C28.7821 30.9577 28.4031 31.1677 27.9881 31.252C25.7761 31.7058 21.2643 32.4844 16.5 32.4844C11.7356 32.4844 7.22388 31.7058 5.01185 31.252C4.59683 31.1677 4.21783 30.9577 3.92632 30.6505C3.63481 30.3433 3.44493 29.9539 3.38247 29.535L3.3206 29.1225C4.56325 29.3288 6.16685 29.5969 8.02825 29.8341C9.7195 30.0558 11.6222 30.2517 13.6589 30.3497C15.5689 30.4466 17.4826 30.4466 19.3926 30.3497C21.4087 30.2466 23.2959 30.0558 24.9717 29.8341ZM32.4843 10.3125L32.077 13.0402C31.515 13.3134 30.3961 13.5661 28.8647 13.7775C28.7925 13.2773 28.3593 12.8906 27.8437 12.8906C28.4109 12.8906 28.875 12.4266 28.875 11.8594C28.875 11.6583 28.8183 11.4727 28.7151 11.3128C29.2256 11.2561 29.6897 11.1942 30.1073 11.1272C31.6129 10.89 32.4843 10.6116 32.4843 10.3125ZM25.2656 11.8594C24.6984 11.8594 24.2343 12.3234 24.2343 12.8906C24.2343 13.4578 24.6984 13.9219 25.2656 13.9219C25.2656 13.9941 25.2759 14.0714 25.2914 14.1384C24.0487 14.2313 22.6823 14.3086 21.2231 14.3602C19.7329 14.4117 18.1448 14.4375 16.5 14.4375C14.8551 14.4375 13.2722 14.4117 11.7768 14.355C9.69372 14.2828 7.79106 14.1642 6.16685 14.0095C3.58356 13.762 1.70669 13.4217 0.922939 13.0402L0.520752 10.3589C0.629033 10.7147 1.95935 11.0344 4.11981 11.2922C5.66153 11.4727 7.62606 11.6222 9.87419 11.7202H9.87935C11.1375 11.7769 12.4884 11.8181 13.9012 11.8387C14.5509 11.8491 15.2212 11.8542 15.8967 11.8542C15.9276 11.8594 15.9534 11.8594 15.9843 11.8594C15.9998 11.8594 16.0204 11.8594 16.0359 11.8542C16.1906 11.8594 16.3453 11.8594 16.5 11.8594C18.2222 11.8594 19.8825 11.8336 21.4345 11.782C22.0326 11.7666 22.6101 11.7459 23.1722 11.7202H23.1773C23.6775 11.6944 24.1673 11.6686 24.6365 11.6428C24.8165 11.7825 25.0377 11.8587 25.2656 11.8594ZM31.1076 19.5525L30.6281 22.7597C29.4525 23.0123 27.7664 23.2289 25.7297 23.3888C24.0693 23.5228 22.1718 23.6208 20.1248 23.6672C18.9595 23.7033 17.7478 23.7188 16.5 23.7188C15.2522 23.7188 14.0404 23.7033 12.8751 23.6672C10.8281 23.6208 8.9306 23.5228 7.27028 23.3888C5.23356 23.2289 3.54747 23.0123 2.37185 22.7597L1.89231 19.5525C3.00091 19.8361 4.74372 20.0836 6.90419 20.2641C8.55419 20.4033 10.4517 20.5064 12.509 20.5683C15.1691 20.6436 17.8308 20.6436 20.4909 20.5683C22.5483 20.5064 24.4458 20.4033 26.0958 20.2641C28.2562 20.0836 29.999 19.8361 31.1076 19.5525Z" fill="#999999"/>
<path d="M26.5445 16.4639L26.0959 20.2641C24.4459 20.4033 22.5484 20.5064 20.4911 20.5683L21.2232 14.3601C22.6825 14.3086 24.0489 14.2312 25.2915 14.1384C25.3637 14.4891 25.6215 14.7778 25.9567 14.8912C25.8657 15.0276 25.8084 15.1837 25.7895 15.3465C25.7706 15.5094 25.7907 15.6744 25.8481 15.828C25.9055 15.9816 25.9986 16.1193 26.1197 16.2299C26.2407 16.3404 26.3863 16.4206 26.5445 16.4639ZM25.7298 23.3887L24.9718 29.8341C23.2961 30.0558 21.4089 30.2466 19.3928 30.3497L20.125 23.6723V23.6672C22.172 23.6208 24.0695 23.5228 25.7298 23.3887ZM12.8753 23.6723L13.659 30.3497C11.6223 30.2517 9.71965 30.0558 8.0284 29.8341L7.27043 23.3887C8.93074 23.5228 10.8282 23.6208 12.8753 23.6672V23.6723ZM11.777 14.355L12.5092 20.5683C10.4518 20.5064 8.55434 20.4033 6.90434 20.2641L6.16699 14.0095C7.79121 14.1642 9.69387 14.2828 11.777 14.355Z" fill="#995B3F"/>
<path d="M30.6281 22.7597L29.6793 29.1225C28.4367 29.3288 26.8331 29.5969 24.9717 29.8341L25.7296 23.3888C27.7664 23.2289 29.4525 23.0124 30.6281 22.7597Z" fill="#995B3F"/>
<path d="M32.0771 13.0402L31.1077 19.5525C29.9992 19.8361 28.2563 20.0836 26.0959 20.2641L26.5445 16.4639C26.627 16.4897 26.7198 16.5 26.8126 16.5C27.3798 16.5 27.8438 16.0359 27.8438 15.4688C27.8438 15.278 27.7923 15.0975 27.6995 14.9428C27.8455 14.963 27.9942 14.9516 28.1356 14.9096C28.2769 14.8676 28.4076 14.7958 28.519 14.6991C28.6303 14.6024 28.7197 14.4831 28.7811 14.349C28.8425 14.215 28.8746 14.0693 28.8751 13.9219C28.8751 13.8703 28.8699 13.8239 28.8648 13.7775C30.3962 13.5661 31.5151 13.3134 32.0771 13.0402ZM20.1249 23.6672V23.6723L19.3927 30.3497C17.4827 30.4466 15.569 30.4466 13.659 30.3497L12.8752 23.6723V23.6672C14.0406 23.7033 15.2523 23.7188 16.5001 23.7188C17.7479 23.7188 18.9596 23.7033 20.1249 23.6672Z" fill="#9E7059"/>
<path d="M19.3926 30.3497C19.2266 30.3579 19.0549 30.3615 18.8868 30.3688C17.5063 31.2363 16.0247 31.9314 14.4751 32.4385C15.1413 32.4668 15.8173 32.4844 16.5 32.4844C21.2643 32.4844 25.7761 31.7058 27.9881 31.252C28.4031 31.1677 28.7821 30.9577 29.0736 30.6505C29.3651 30.3433 29.555 29.9539 29.6175 29.535L29.6793 29.1225C28.4367 29.3288 26.8331 29.5969 24.9717 29.8341C23.2959 30.0558 21.4087 30.2466 19.3926 30.3497ZM32.4843 10.3125C32.4843 10.5554 31.9012 10.7843 30.8787 10.989C30.6853 11.8512 30.4671 12.7077 30.2243 13.5573C31.0633 13.3985 31.699 13.2242 32.077 13.0402L32.4843 10.3125ZM25.8518 23.3784C27.8329 23.2196 29.4767 23.0072 30.6281 22.7597L31.1076 19.5525C30.294 19.7608 29.1353 19.949 27.7236 20.1063C27.1666 21.2339 26.5415 22.3267 25.8518 23.3784Z" fill="#808080"/>
<path d="M19.4287 30.0192L19.3926 30.3497C21.4087 30.2466 23.2959 30.0558 24.9716 29.8341L25.7038 23.6084C24.0007 26.1437 21.9207 28.3398 19.4287 30.0192Z" fill="#915036"/>
<path d="M25.7296 23.3888L25.7039 23.6084C25.7544 23.5331 25.8018 23.4548 25.8518 23.379L25.7296 23.3888Z" fill="#9E7059"/>
<path d="M32.077 13.0402C31.6986 13.2242 31.0633 13.3985 30.2244 13.5573C29.5742 15.8302 28.7482 18.0381 27.7241 20.1063C29.1359 19.949 30.294 19.7608 31.1082 19.5525L32.077 13.0402Z" fill="#995B3F"/>
<path d="M19.3925 30.3497L19.4286 30.0192C19.2507 30.1393 19.0687 30.2543 18.8867 30.3688C19.0548 30.3616 19.2265 30.3579 19.3925 30.3497ZM21.223 14.3602L20.4908 20.5683C17.8307 20.6436 15.169 20.6436 12.5089 20.5683L11.7768 14.355C13.2721 14.4117 14.855 14.4375 16.4999 14.4375C18.1447 14.4375 19.7329 14.4117 21.223 14.3602ZM7.2702 23.3888L8.02816 29.8341C6.16676 29.5969 4.56316 29.3288 3.32051 29.1225L2.37176 22.7597C3.54738 23.0123 5.23348 23.2289 7.2702 23.3888ZM6.16676 14.0095L6.9041 20.2641C4.74363 20.0836 3.00082 19.8361 1.89223 19.5525L0.922852 13.0402C1.7066 13.4217 3.58348 13.762 6.16676 14.0095Z" fill="#9E7059"/>
<path d="M28.8647 13.7775C28.8848 13.9236 28.8735 14.0723 28.8315 14.2136C28.7894 14.3549 28.7177 14.4857 28.621 14.597C28.5243 14.7083 28.4049 14.7977 28.2709 14.8591C28.1368 14.9205 27.9912 14.9526 27.8438 14.9531C27.7922 14.9531 27.7458 14.948 27.6994 14.9428C27.4548 14.9076 27.2313 14.7848 27.0703 14.5973C27.2302 14.4169 27.3281 14.1797 27.3281 13.9219C27.3281 13.6641 27.2302 13.4269 27.0703 13.2464C27.2559 13.0298 27.5344 12.8906 27.8438 12.8906C28.3594 12.8906 28.7925 13.2773 28.8647 13.7775Z" fill="#76991F"/>
<path d="M26.2969 14.9531C26.6062 14.9531 26.8847 14.8139 27.0703 14.5974C27.225 14.7778 27.4467 14.9067 27.6994 14.9428C27.7922 15.0975 27.8437 15.278 27.8437 15.4688C27.8437 16.0359 27.3797 16.5 26.8125 16.5C26.7197 16.5 26.6269 16.4897 26.5444 16.4639C26.3862 16.4207 26.2406 16.3405 26.1195 16.2299C25.9984 16.1193 25.9054 15.9816 25.848 15.828C25.7906 15.6744 25.7705 15.5094 25.7894 15.3466C25.8082 15.1837 25.8655 15.0276 25.9565 14.8913C26.0648 14.9325 26.1783 14.9531 26.2969 14.9531Z" fill="#627C12"/>
<path d="M27.0703 14.5973C26.8847 14.8139 26.6063 14.9531 26.2969 14.9531C26.1783 14.9531 26.0648 14.9325 25.9566 14.8912C25.6214 14.7778 25.3636 14.4891 25.2914 14.1384C25.2759 14.0714 25.2656 13.9941 25.2656 13.9219C25.2656 13.3547 25.7297 12.8906 26.2969 12.8906C26.6063 12.8906 26.8847 13.0298 27.0703 13.2464C27.2302 13.4269 27.3281 13.6641 27.3281 13.9219C27.3281 14.1797 27.2302 14.4169 27.0703 14.5973Z" fill="#90B541"/>
<path d="M26.2969 12.8906C25.7297 12.8906 25.2656 13.3547 25.2656 13.9219C24.6984 13.9219 24.2344 13.4578 24.2344 12.8906C24.2344 12.3234 24.6984 11.8594 25.2656 11.8594C25.2656 12.4266 25.7297 12.8906 26.2969 12.8906Z" fill="#627C12"/>
<path d="M28.7152 11.3128C28.8183 11.4727 28.875 11.6583 28.875 11.8594C28.875 12.4266 28.4109 12.8906 27.8438 12.8906C27.5344 12.8906 27.2559 12.7514 27.0703 12.5348C27.2302 12.3544 27.3281 12.1172 27.3281 11.8594C27.3281 11.6016 27.2302 11.3644 27.0703 11.1839C27.1661 11.0725 27.2847 10.983 27.4182 10.9216C27.5517 10.8602 27.6968 10.8283 27.8438 10.8281C28.0181 10.8286 28.1895 10.8734 28.3419 10.9581C28.4943 11.0429 28.6227 11.1649 28.7152 11.3128Z" fill="#76991F"/>
<path d="M27.0704 11.1839C26.8848 10.9673 26.6063 10.8281 26.297 10.8281C26.1784 10.8281 26.0649 10.8488 25.9566 10.89C25.8666 10.7568 25.8094 10.6042 25.7897 10.4447C25.77 10.2852 25.7883 10.1233 25.8432 9.97219C25.9129 9.77053 26.0437 9.59561 26.2175 9.47178C26.3912 9.34794 26.5992 9.28134 26.8126 9.28125C27.3798 9.28125 27.8438 9.74531 27.8438 10.3125C27.8438 10.5033 27.7923 10.6838 27.6943 10.8384C27.4468 10.8745 27.2251 11.0034 27.0704 11.1839Z" fill="#627C12"/>
<path d="M24.2344 10.8281C24.2344 10.2609 24.6984 9.79688 25.2656 9.79688C25.3223 9.79688 25.3739 9.80203 25.4255 9.80719C25.5802 9.83297 25.7194 9.88969 25.8431 9.97219C25.7882 10.1233 25.7699 10.2852 25.7896 10.4447C25.8093 10.6042 25.8665 10.7568 25.9566 10.89C25.7549 10.9597 25.58 11.0905 25.4562 11.2642C25.3323 11.438 25.2657 11.646 25.2656 11.8594C25.0378 11.8587 24.8166 11.7825 24.6366 11.6428C24.4819 11.5242 24.3581 11.3592 24.2962 11.1684C24.255 11.0602 24.2344 10.9467 24.2344 10.8281Z" fill="#76991F"/>
<path d="M27.0703 12.5349C26.8847 12.7514 26.6063 12.8906 26.2969 12.8906C25.7297 12.8906 25.2656 12.4266 25.2656 11.8594C25.2656 11.4108 25.5544 11.0292 25.9566 10.89C26.0648 10.8488 26.1783 10.8281 26.2969 10.8281C26.6063 10.8281 26.8847 10.9674 27.0703 11.1839C27.2302 11.3644 27.3281 11.6016 27.3281 11.8594C27.3281 12.1172 27.2302 12.3544 27.0703 12.5349ZM25.4255 9.8072C25.6692 9.30133 25.791 8.7454 25.7812 8.18397C25.7713 7.62254 25.6301 7.07123 25.3688 6.57423C25.8638 6.29063 26.2711 5.88844 26.4619 5.36251C26.4928 5.28516 26.5238 5.20266 26.565 5.12532C26.9775 4.34673 27.8592 3.95485 28.7358 4.08891C29.1277 4.14563 29.5195 4.30548 29.8702 4.58391C29.9578 4.65095 30.0352 4.72829 30.1073 4.80563C30.5559 5.28001 30.7777 5.93485 30.6848 6.5536C30.6333 6.88876 30.5044 7.18266 30.3291 7.42501C29.9062 8.00251 29.8289 8.77079 30.03 9.48235C30.0352 9.49782 30.0403 9.51329 30.0403 9.52876C30.1847 10.0495 30.2105 10.5961 30.1073 11.122V11.1272C29.6897 11.1942 29.2256 11.2561 28.7152 11.3128C28.6093 11.1433 28.4564 11.0083 28.2751 10.924C28.0939 10.8398 27.8921 10.8101 27.6942 10.8384C27.7922 10.6838 27.8438 10.5033 27.8438 10.3125C27.8438 9.74532 27.3797 9.28126 26.8125 9.28126C26.3639 9.28126 25.9823 9.57001 25.8431 9.97219C25.7194 9.88969 25.5802 9.83298 25.4255 9.8072Z" fill="#90B541"/>
<path d="M27.6118 9.67004C27.7546 9.8469 27.8438 10.0686 27.8438 10.3125C27.8438 10.5033 27.7923 10.6838 27.6943 10.8384C27.8922 10.8101 28.094 10.8398 28.2752 10.924C28.4565 11.0083 28.6094 11.1433 28.7153 11.3128C29.2257 11.2561 29.6898 11.1942 30.1074 11.1272V11.122C30.2106 10.5961 30.1848 10.0495 30.0404 9.52876C30.0404 9.51329 30.0353 9.49782 30.0301 9.48235C29.829 8.77079 29.9063 8.00251 30.3292 7.42501C30.5045 7.18266 30.6334 6.88876 30.6849 6.5536C30.753 6.09882 30.6504 5.62496 30.4132 5.2171C29.9063 6.9496 29.003 8.57691 27.6118 9.67004Z" fill="#76991F"/>
<path d="M3.94453 4.74378L4.27453 5.52237C2.41828 7.31675 0.515625 6.70315 0.515625 6.70315C1.87172 4.49628 3.28969 4.50659 3.94453 4.74378Z" fill="#90B541"/>
<path d="M4.82361 3.74138L6.12556 5.97094C5.97603 6.1875 5.85744 6.435 5.76462 6.70313C5.63633 6.68701 5.5072 6.6784 5.3779 6.67735C5.17681 6.67735 4.98087 6.69797 4.79525 6.73922L4.27447 5.52235L3.94447 4.74375L3.75626 4.30238C3.70916 4.19169 3.70224 4.06801 3.7367 3.95275C3.77116 3.83749 3.84484 3.73792 3.94498 3.67125L4.09245 3.57277C4.15089 3.53371 4.2167 3.50702 4.28584 3.49434C4.35497 3.48167 4.42597 3.48328 4.49447 3.49907C4.56296 3.51487 4.62749 3.54451 4.6841 3.58618C4.7407 3.62786 4.78818 3.68067 4.82361 3.74138Z" fill="#93621D"/>
<path d="M8.45616 5.04799C7.50226 6.83206 6.78038 9.4669 9.28116 11.3438C9.46679 11.483 9.66272 11.6067 9.87413 11.7202C7.62601 11.6222 5.66147 11.4727 4.11976 11.2922L4.12491 11.2355C3.64538 10.6992 3.33085 10.0908 3.20194 9.48753C3.02663 8.68831 3.18132 7.90456 3.69179 7.35799C3.99085 7.03831 4.36726 6.83721 4.79523 6.7444V6.73924C4.98085 6.69799 5.17679 6.67737 5.37788 6.67737C5.50163 6.67737 5.63569 6.68768 5.7646 6.70315C5.85741 6.43503 5.97601 6.18753 6.12554 5.97096C6.40913 5.56362 6.79069 5.2594 7.25476 5.11503C7.59507 5.00674 8.10554 4.97581 8.45616 5.04799Z" fill="#D8234E"/>
<path d="M9.28135 11.3438C6.78056 9.4669 7.50244 6.83206 8.45635 5.04799C8.10572 4.97581 7.59525 5.00674 7.25494 5.11503C7.01363 5.18979 6.79603 5.30993 6.60164 5.46307C6.66094 7.59931 6.81511 9.72626 5.8313 11.4639C7.0291 11.5676 8.38777 11.6552 9.8738 11.7202C9.66713 11.6098 9.46908 11.484 9.28135 11.3438Z" fill="#C90030"/>
<path d="M13.9013 11.8387C12.4885 11.8181 11.1375 11.7769 9.87942 11.7202H9.87426C9.66286 11.6067 9.46692 11.483 9.2813 11.3438C6.78051 9.46688 7.50239 6.83203 8.4563 5.04797C9.0802 3.89297 9.79692 3.09375 9.79692 3.09375V3.60938C9.79692 3.60938 7.3013 10.2558 13.5043 10.8694C14.1516 11.4837 15.0046 11.8348 15.8968 11.8542C15.2213 11.8542 14.551 11.8491 13.9013 11.8387Z" fill="#F2BC36"/>
<path d="M13.5042 10.8694C12.1987 10.7405 11.2819 10.3419 10.643 9.79639C10.4878 10.4868 10.1537 11.0746 9.51587 11.4923C9.63343 11.5696 9.74687 11.6516 9.87474 11.7202H9.8799C11.138 11.7769 12.489 11.8182 13.9018 11.8388C14.5515 11.8491 15.2218 11.8542 15.8972 11.8542C15.0049 11.8349 14.1517 11.4838 13.5042 10.8694Z" fill="#F48E06"/>
<path d="M11.3438 2.0625V4.10438C11.3438 5.68219 11.782 6.92484 12.3905 7.89422C13.1588 9.11625 14.2003 9.88969 14.9634 10.3383C15.2316 10.493 15.1181 10.9055 14.8036 10.9106C14.3344 10.9261 13.9013 10.9106 13.5042 10.8694C7.30125 10.2558 9.79688 3.60938 9.79688 3.60938V2.0625H8.76562C8.47687 2.0625 8.25 1.83047 8.25 1.54688V1.03125C8.25 0.747656 8.47687 0.515625 8.76562 0.515625H12.375C12.6586 0.515625 12.8906 0.747656 12.8906 1.03125V1.54688C12.8906 1.83047 12.6586 2.0625 12.375 2.0625H11.3438Z" fill="#FFCA3A"/>
<path d="M14.9634 10.3383C14.2003 9.88969 13.1587 9.11626 12.3904 7.89423C12.2521 7.67186 12.1268 7.44168 12.015 7.20483C12.13 8.29744 12.0872 9.37097 11.2205 10.2037C11.8036 10.5373 12.5503 10.775 13.5042 10.8694C13.9012 10.9106 14.3343 10.9261 14.8035 10.9106C15.1181 10.9055 15.2315 10.493 14.9634 10.3383Z" fill="#FF9700"/>
<path d="M15.8966 11.8542C15.0044 11.8348 14.1515 11.4837 13.5041 10.8694C13.9012 10.9106 14.3343 10.9261 14.8035 10.9106C15.118 10.9055 15.2315 10.493 14.9633 10.3383C14.2002 9.88969 13.1587 9.11626 12.3904 7.89423C12.4798 7.003 12.897 6.17673 13.561 5.57559C14.225 4.97445 15.0886 4.64127 15.9843 4.64063C16.6071 4.63938 17.2196 4.7998 17.7619 5.10619C18.3042 5.41257 18.7577 5.85445 19.078 6.3886C19.4157 6.9508 19.594 7.59423 19.594 8.25001C19.594 8.90579 19.4157 9.54922 19.078 10.1114C18.7618 10.6374 18.3163 11.0737 17.7838 11.3788C17.2513 11.6838 16.6495 11.8475 16.0358 11.8542C15.9894 11.8594 15.943 11.8594 15.8966 11.8542Z" fill="#FF9700"/>
<path d="M19.0782 6.38857C18.7086 5.77821 18.1663 5.29107 17.52 4.98865C17.4576 7.78282 17.0343 11.203 14.1824 11.3716C14.6897 11.6644 15.275 11.8408 15.8968 11.8547C15.9432 11.8599 15.9896 11.8599 16.036 11.8547C17.3251 11.8392 18.4543 11.1483 19.0782 10.1119C19.4159 9.54964 19.5944 8.90612 19.5944 8.25023C19.5944 7.59435 19.4159 6.95082 19.0782 6.38857Z" fill="#FF740D"/>
<path d="M25.2656 9.79688C24.6984 9.79688 24.2344 10.2609 24.2344 10.8281C24.2344 10.9467 24.255 11.0602 24.2962 11.1684C23.9611 11.4159 23.5847 11.6016 23.1773 11.7202H23.1722C22.6102 11.7459 22.0327 11.7666 21.4345 11.782C20.4342 11.5758 19.5886 10.957 19.0781 10.1114C19.4157 9.54921 19.5941 8.90578 19.5941 8.25C19.5941 7.59422 19.4157 6.95079 19.0781 6.3886C19.3989 5.85479 19.8524 5.41319 20.3946 5.10685C20.9368 4.80051 21.5491 4.63989 22.1719 4.64063C23.5641 4.64063 24.7655 5.42438 25.3688 6.57422C25.6301 7.07122 25.7713 7.62254 25.7812 8.18397C25.791 8.7454 25.6692 9.30133 25.4255 9.80719C25.3739 9.80203 25.3223 9.79688 25.2656 9.79688Z" fill="#FF9700"/>
<path d="M25.3688 6.57423C25.0818 6.03046 24.6608 5.56887 24.1457 5.23309C23.7657 7.66169 22.1668 9.92992 19.8645 11.021C20.31 11.3922 20.8442 11.6604 21.4346 11.782C22.0327 11.7666 22.6102 11.746 23.1722 11.7202H23.1774C23.5847 11.6016 23.9611 11.416 24.2963 11.1685C24.255 11.0602 24.2344 10.9467 24.2344 10.8281C24.2344 10.261 24.6985 9.79689 25.2657 9.79689C25.3224 9.79689 25.374 9.80205 25.4255 9.8072C25.6692 9.30134 25.7911 8.74541 25.7812 8.18398C25.7714 7.62255 25.6301 7.07124 25.3688 6.57423Z" fill="#FF740D"/>
<path d="M22.9453 10.3125C23.0877 10.3125 23.2031 10.1971 23.2031 10.0547C23.2031 9.9123 23.0877 9.79688 22.9453 9.79688C22.8029 9.79688 22.6875 9.9123 22.6875 10.0547C22.6875 10.1971 22.8029 10.3125 22.9453 10.3125Z" fill="#F2680A"/>
<path d="M21.9141 10.8281C22.0564 10.8281 22.1719 10.7127 22.1719 10.5703C22.1719 10.4279 22.0564 10.3125 21.9141 10.3125C21.7717 10.3125 21.6562 10.4279 21.6562 10.5703C21.6562 10.7127 21.7717 10.8281 21.9141 10.8281Z" fill="#F2680A"/>
<path d="M21.3984 9.79688C21.5408 9.79688 21.6562 9.68145 21.6562 9.53906C21.6562 9.39668 21.5408 9.28125 21.3984 9.28125C21.2561 9.28125 21.1406 9.39668 21.1406 9.53906C21.1406 9.68145 21.2561 9.79688 21.3984 9.79688Z" fill="#F2680A"/>
<path d="M20.3672 10.3125C20.5096 10.3125 20.625 10.1971 20.625 10.0547C20.625 9.9123 20.5096 9.79688 20.3672 9.79688C20.2248 9.79688 20.1094 9.9123 20.1094 10.0547C20.1094 10.1971 20.2248 10.3125 20.3672 10.3125Z" fill="#F2680A"/>
<path d="M17.7891 9.28125C17.9314 9.28125 18.0469 9.16582 18.0469 9.02344C18.0469 8.88105 17.9314 8.76562 17.7891 8.76562C17.6467 8.76562 17.5312 8.88105 17.5312 9.02344C17.5312 9.16582 17.6467 9.28125 17.7891 9.28125Z" fill="#F2680A"/>
<path d="M17.2734 10.3125C17.4158 10.3125 17.5312 10.1971 17.5312 10.0547C17.5312 9.9123 17.4158 9.79688 17.2734 9.79688C17.1311 9.79688 17.0156 9.9123 17.0156 10.0547C17.0156 10.1971 17.1311 10.3125 17.2734 10.3125Z" fill="#F2680A"/>
<path d="M16.2422 10.8281C16.3846 10.8281 16.5 10.7127 16.5 10.5703C16.5 10.4279 16.3846 10.3125 16.2422 10.3125C16.0998 10.3125 15.9844 10.4279 15.9844 10.5703C15.9844 10.7127 16.0998 10.8281 16.2422 10.8281Z" fill="#F2680A"/>
<path d="M16.2422 9.79688C16.3846 9.79688 16.5 9.68145 16.5 9.53906C16.5 9.39668 16.3846 9.28125 16.2422 9.28125C16.0998 9.28125 15.9844 9.39668 15.9844 9.53906C15.9844 9.68145 16.0998 9.79688 16.2422 9.79688Z" fill="#F2680A"/>
<path d="M15.2109 9.28125C15.3533 9.28125 15.4688 9.16582 15.4688 9.02344C15.4688 8.88105 15.3533 8.76562 15.2109 8.76562C15.0686 8.76562 14.9531 8.88105 14.9531 9.02344C14.9531 9.16582 15.0686 9.28125 15.2109 9.28125Z" fill="#F2680A"/>
<path d="M4.32306 7.94374C3.75226 8.0711 3.67183 9.38852 4.24365 9.26116C4.51384 9.20083 4.4035 8.88991 4.48651 8.57177C4.57829 8.21753 4.62419 7.87671 4.32306 7.94374Z" fill="#F47196"/>
<path d="M14.3797 6.24884C13.8058 6.13644 13.2036 7.31103 13.7785 7.42395C14.0503 7.47706 14.074 7.14809 14.2776 6.88976C14.5035 6.60205 14.6824 6.30814 14.3797 6.24884ZM21.0107 5.70589C20.6946 5.51098 19.999 6.11994 20.3161 6.31536C20.4657 6.40765 20.5729 6.20553 20.7688 6.08694C20.987 5.95494 21.1777 5.8085 21.0107 5.70589Z" fill="#FFCA3A"/>
<path d="M28.5676 4.96855C28.1685 4.5411 26.9918 5.13974 27.3914 5.56771C27.5802 5.77035 27.7926 5.51769 28.1087 5.42746C28.4608 5.32742 28.778 5.19388 28.5676 4.96855Z" fill="#B3D169"/>
<path d="M26.6882 15.5667C26.5222 15.5667 26.5222 15.8245 26.6882 15.8245C26.8538 15.8245 26.8543 15.5667 26.6882 15.5667Z" fill="#76991F"/>
<path d="M28.2351 13.5042C28.0691 13.5042 28.0691 13.762 28.2351 13.762C28.4006 13.762 28.4012 13.5042 28.2351 13.5042ZM24.6257 10.4105C24.4597 10.4105 24.4597 10.6683 24.6257 10.6683C24.7913 10.6683 24.7918 10.4105 24.6257 10.4105Z" fill="#B3D169"/>
<path d="M26.6882 9.95673C26.5222 9.95673 26.5222 10.2145 26.6882 10.2145C26.8538 10.2145 26.8543 9.95673 26.6882 9.95673ZM24.6257 12.5349C24.4597 12.5349 24.4597 12.7927 24.6257 12.7927C24.7913 12.7927 24.7918 12.5349 24.6257 12.5349ZM28.0371 13.6099C27.8711 13.6099 27.8711 13.8677 28.0371 13.8677C28.2032 13.8677 28.2032 13.6099 28.0371 13.6099Z" fill="#76991F"/>
<path d="M26.1959 13.5522C25.8643 13.5522 25.8638 14.0678 26.1959 14.0678C26.5279 14.0678 26.5285 13.5522 26.1959 13.5522ZM26.1959 11.532C25.8643 11.532 25.8638 12.0476 26.1959 12.0476C26.5279 12.0476 26.5285 11.532 26.1959 11.532Z" fill="#B3D169"/>
<path d="M3.05086 20.6993C2.98414 20.7123 2.92507 20.7507 2.88604 20.8064C2.84701 20.862 2.83105 20.9306 2.84151 20.9978L2.97248 21.7429C2.99568 21.8759 3.1349 21.9826 3.27103 21.9522C3.33775 21.9392 3.39682 21.9008 3.43585 21.8451C3.47488 21.7895 3.49083 21.7208 3.48037 21.6537L3.3494 20.9086C3.3262 20.7756 3.18698 20.6688 3.05086 20.6993Z" fill="#CCCCCC"/>
</g>
<defs>
<clipPath id="clip0_187_10">
<rect width="33" height="33" fill="white"/>
</clipPath>
</defs>
</svg>
