<svg xmlns="http://www.w3.org/2000/svg" viewBox="0 0 284.25 384.74"><path fill="#6ab512" d="M224.28,5.24l23,10.63c5.85,2.7,12.6,6.82,12.37,13.5-.14,4.07-3.02,8.08-1.94,11.94,.94,3.36,4.42,5.03,6.81,7.48,5.62,5.78,4.71,15.63,1.64,23.44-3.07,7.81-7.93,15.06-9.26,23.31-.95,5.86-.04,11.8-.29,17.71-1.2,28.24-27.19,48.8-39.11,74.66-4.77,10.35-7.73,22.31-16.45,29.51-3.47,2.87-7.63,4.75-11.02,7.73-9.4,8.27-10.48,22.32-14.34,34.31-1.13,3.52-2.72,7.16-5.73,9.23-3.66,2.51-8.45,2.08-12.48,3.87-6.7,2.97-9.63,11.1-15.12,16.09-2.99,2.73-6.69,4.46-10.32,6.14-13.94,6.47-28.32,12.99-43.42,13.8s-31.3-5.34-38.19-18.9c-5.79-11.41-3.98-25.66,.53-38.03,4.51-12.37,11.48-23.73,16.1-36.06,7.79-20.79,8.64-43.58,16.54-64.33,1.15-3.03,2.51-6.09,4.79-8.38,2.72-2.73,6.46-4.08,9.37-6.58,5.9-5.06,7.3-13.78,6.78-21.51-.53-7.72-2.53-15.36-1.72-23.1,1.85-17.58,13.87-34.49,17.85-52.13,2.72-12.07,7.16-24.99,17.57-32.51C148.62-.43,162.46-.52,174.15,1.96c10.2,2.16,14.62,3.85,24.89,1.28,10.15-2.54,15.52-2.5,25.25,1.99Z"/><path fill="#79c713" d="M113.17,229.44c5.29-9.96,13.11-19.88,11.66-31.06-.61-4.7-2.85-9.02-3.97-13.62-2.54-10.41,1.21-22.1,9.33-29.08,3.48-2.99,7.63-5.13,11.08-8.14,4.21-3.67,7.29-8.61,8.74-14,2.13-7.92,.89-16.9,5.25-23.85,8.07-12.88,29.1-10.21,39.16-21.59,3.8-4.29,5.46-10.02,8.25-15.02,2.79-5,7.67-9.72,13.38-9.2,4.01,.36,7.47,3.25,11.49,3.55,8.51,.64,14.26-10.11,22.78-10.49,7.18-.32,12.41,6.83,14.66,13.65,2.25,6.82,3.16,14.46,7.93,19.83,3.24,3.64,8.08,5.96,10.17,10.37,1.4,2.96,1.31,6.4,.89,9.65-1.08,8.24-4.14,16.22-8.86,23.07-2.61,3.79-5.74,7.26-7.8,11.38-4.23,8.41-3.56,18.36-5.48,27.58-4.66,22.32-24.12,38.93-30.56,60.8-1.04,3.55-1.73,7.2-2.91,10.71-2.51,7.45-7.26,14.12-13.48,18.92-6.56,5.06-14.9,8.32-19.31,15.34-1.72,2.73-2.72,5.88-4.56,8.53-2.75,3.97-7.16,6.48-11.67,8.22-21.38,8.25-40.73-.71-57.87-13.37-16.99-12.55-17.84-34.21-8.3-52.18Z"/><path fill="#bbdf6e" d="M205.38,211.16c-10.79,24.73-24.36,47.2-39.51,68.31-11.44,15.94-23.79,31.1-36.53,45.87-11.14,12.91-30.49,32.72-46.18,41.32,0,0-48.88,16.51-47.1-28.17,.54-13.68,8.83-23.75,21.79-33.39,1.08-.8,2.19-1.6,3.33-2.39,43.63-30.5,131.95-59.09,165.78-186.81,.45-1.7,2.97-1.26,2.8,.49-3.36,35.41-12.08,66.56-24.38,94.77Z"/><path fill="#bbdf6e" d="M137.73 216.5c-5.34 31.03-19.28 60.7-32.43 89.18-3.82 8.28 8.6 15.46 12.25 7.16 6.6-14.98 12.03-30.36 15.53-46.36 3.53-16.13 5.5-32.7 8.2-49 .38-2.32-3.16-3.33-3.56-.98h0zM167.67 171.69c-1.83 10.41-5.66 20.32-8.02 30.66-2.15 9.38-4.23 18.78-6.53 28.12-2.14 8.67-4.48 17.37-7.46 25.79-1.45 4.08-3.09 8.09-4.94 12.01-2.14 4.53-4.7 8.17-5.18 13.26-.47 4.99 6.13 8.57 10.15 5.83 7.12-4.84 10.13-15.25 12.65-23.17 2.94-9.27 4.71-18.76 6.05-28.38 1.33-9.53 2.39-19.1 3.58-28.65 1.42-11.44 1.29-23.17 3.27-34.48.41-2.32-3.15-3.32-3.56-.98h0zM191.97 128.8c1.42 8.75 1.97 18.77 1.7 27.64-.26 8.72-1.37 17.36-3.28 25.87-1.88 8.37-4.01 16.64-6.71 24.79-2.75 8.3-7.24 16.77-8.99 25.28-1.56 7.61 8.32 12.12 12.65 5.33 4.91-7.7 7.38-18.16 9.73-26.92s4.42-18.53 5.3-27.98c.89-9.53 1.01-19.04.06-28.57-.4-4-.85-7.99-1.58-11.95-1.01-5.43-3.14-9.47-5.21-14.52-.93-2.26-4.07-1.44-3.67 1.01h0z"/><path fill="#bbdf6e" d="M249.45 126.01c-4.2 15.44-13.3 28.49-23.71 40.46-9.99 11.49-22.44 20.55-32.51 31.89-4.95 5.58 2.49 12.85 8.12 8.12 12.21-10.28 22.41-24 31.7-36.9 9.21-12.79 15.83-27.37 19.96-42.58.62-2.3-2.94-3.27-3.56-.98h0zM235.07 192.18c-10.65 10.16-22.5 19.66-34.25 28.54-5.66 4.28-11.46 8.37-17.4 12.25-5.86 3.83-12.87 6.89-17.17 12.48-3.6 4.69 2.33 9.74 6.87 8.94 6.99-1.23 13.95-7.78 19.49-12.02 5.79-4.43 11.44-9.04 16.83-13.96 11.17-10.18 20.22-21.47 28.99-33.65 1.45-2.02-1.66-4.2-3.35-2.59h0zM198.64 254.37c-3.94 2.94-10.19 4.68-14.7 6.56-4.26 1.77-8.54 3.48-12.8 5.25-4.32 1.79-8.68 3.46-13.05 5.11-4.36 1.65-9.49 2.83-13.21 5.65-3.66 2.78-3.1 10.04 2.62 9.67 9.45-.61 20.35-6.76 28.83-10.92 4.51-2.21 8.8-4.85 12.8-7.88 4.08-3.09 7.36-7.27 11.38-10.26 1.88-1.4.05-4.61-1.86-3.19h0z"/><path fill="#79c713" d="M102.46,222.2c4.94-10.13,8.36-22.3,18.25-27.71,4.15-2.27,8.97-3,13.35-4.8,9.91-4.07,17.15-13.98,18.02-24.66,.37-4.57-.34-9.18,.06-13.75,.49-5.56,2.67-10.96,6.18-15.31,5.15-6.38,13.14-10.67,16.2-18.28,5.66-14.1-8.87-29.53-5.59-44.37,1.24-5.6,4.88-10.31,7.29-15.51,2.4-5.2,3.34-11.92-.43-16.23-2.65-3.03-7.02-4.13-9.63-7.2-5.53-6.5-.22-17.48-4.92-24.6-1.98-3-5.19-4.5-8.75-4.98-3.57-.48-7.49,.06-10.91,1.16-18.91,7.2-42.88-19.49-54.17,3.75-6.99,14.39-7.31,34.75-24.26,42.93-2.01,1.23-4.02,2.47-5.98,3.74-9.82,6.36-18.44,13.72-19.32,27.32,.11,2.51,.47,5.07,.88,7.65,.62,3.88,1.35,7.8,1.51,11.65,.08,1.92,.02,3.83-.27,5.71-1.45,4.46-3.03,10.53-6.86,12.78-28.43,16.28-23.66,48.7-17.19,74.07,.18,3.06,.22,6.16,.11,9.24-.56,2.85-1.38,5.63-2.32,8.39-.94,2.74-1.99,5.46-3.13,8.16-1.04,4.96,.12,11,1.44,15.84,1.23,2.63,2.86,5.21,4.93,7.71,2.26,2.69,4.71,4.86,7.29,6.57,18.06,12.01,42.06,2.4,59.61-8.42,1.95-1.15,3.82-2.46,5.6-3.93,5.33-4.42,9.79-10.26,13.04-16.93Z"/><path fill="#bbdf6e" d="M62.98,136.88c-13.65,23.28-23.83,47.47-31.98,72.14-6.15,18.63-19.71,41.5-24.16,60.49-3.89,16.6-8.51,43.91-6.23,61.66,0,0,23.98,45.27,59.06,17.55,10.74-8.49,14.01-21.11,14.17-37.26,.01-1.35,0-2.71-.03-4.1-1.01-53.23-29.88-141.46,53.49-243.97,1.11-1.36-.73-3.14-2.04-1.98-26.65,23.55-46.71,48.94-62.28,75.48Z"/><path fill="#bbdf6e" d="M31.3 146.91c-3.68 13.82-3.88 28.34-3.98 42.57-.1 14.48.99 28.95 3.35 43.24 1.06 6.42 10.65 3.64 9.71-2.68-2.05-13.86-3.75-27.77-4.56-41.76-.79-13.61.15-27.25-.68-40.85-.13-2.14-3.26-2.75-3.85-.52h0zM60.51 100.07c-6.56 16.14-11.44 32.13-14.32 49.41-2.72 16.36-4.96 33.72-3.03 50.28.69 5.89 9.06 6.17 9.38 0 .85-16.4.26-32.76 1.98-49.15 1.74-16.59 4.56-33.64 8.43-49.87.39-1.63-1.85-2.15-2.45-.67h0z"/><path fill="#bbdf6e" d="M87.49,67.95c-16.36,32.69-28.12,69.12-34.2,105.19-.93,5.52,7.12,8.01,8.56,2.36,4.55-17.8,8.54-35.74,13.43-53.45,4.89-17.68,10.05-35.29,14.87-52.97,.42-1.56-1.91-2.64-2.67-1.13h0Z"/><path fill="#bbdf6e" d="M117.96 97.15c-2.97 4.43-8.42 7.18-12.85 10.07-4.09 2.66-8.28 5.16-12.38 7.81-9.05 5.86-18.52 11.01-27.24 17.37-5.32 3.88-.69 12.47 5.28 9.03 10.59-6.11 20.01-13.95 29.64-21.42 3.99-3.1 8.27-6.32 11.78-9.98 3.33-3.48 5.38-7.6 7.89-11.64.84-1.36-1.25-2.55-2.12-1.24h0zM114.32 131.95c-3.54 4.42-8.35 8-12.61 11.72-4.57 4-9.5 7.68-14.52 11.1-9.54 6.5-19.48 12.07-29.84 17.15-6.64 3.26-.82 13.17 5.8 9.93 10.64-5.21 20.67-12.11 29.41-20.11 4.24-3.89 8.22-8.01 11.95-12.39 4.26-5.01 7.47-10.57 11.55-15.66.98-1.23-.75-2.98-1.74-1.74h0zM100.19 175.16c-3.52 4.31-8.34 8.35-12.34 12.25-4.66 4.55-9.78 8.53-15.13 12.23-9.8 6.76-21.33 11.46-30.64 18.78-5.23 4.11 1.45 10.71 6.55 8.48 5.9-2.58 11.4-7 16.64-10.72 4.88-3.47 9.73-7.02 14.3-10.88 4.71-3.99 9.25-8.21 13.39-12.79 4.47-4.95 6.71-9.67 9.69-15.47.76-1.48-1.27-3.33-2.45-1.89h0zM11.71 284.06s-35.34 62.73 17.55 93.42c52.89 30.7 93.07-45.78 93.07-45.78L11.71 284.06z"/><path fill="#a7d643" d="M73.32,294.84s1.81,49.68-7.1,74.75c0,0,19.81-40.75,21.39-83.24l-14.29,8.49Z"/><path fill="#cfe899" d="M33.05 221.35c-.07-.81-.34-1.54-1-1.98-6.02 13.93-10.55 28.44-14.65 43.05-5.03 17.95-9.44 36.24-9.98 54.87-.29 10.06.72 20.52 4.69 29.86 1.75 4.12 11.57 22.15 18.19 16.64 5.51-4.6 1.07-21.76-.1-27.55-1.94-9.61-4.76-19.03-6.19-28.73-4.13-28.01 3.58-56.21 8.87-84.02.13-.68.23-1.44.17-2.14zM150.74 256.17c1.42-1.54-.52-3.84-2.28-2.7-16.22 10.53-44.33 29.29-48.24 35.27-5.54 8.47-11.81 21.12-5.16 21.5 4.99.28 39-35.95 55.68-54.07z"/></svg>