<svg xmlns="http://www.w3.org/2000/svg" width="64" height="64" viewBox="0 0 16.933 16.933"><path fill="#c4dcf0" d="M 15.932941,7.1459895 13.81582,9.7900696 c -0.03792,0.0472 -0.05853,0.10588 -0.05839,0.16638 V 14.94375 c -0.003,0.25298 0.316724,0.3655 0.472825,0.16638 l 2.115054,-2.64666 c 0.0378,-0.047 0.05841,-0.10554 0.05839,-0.16587 V 7.3097896 c -5.29e-4,-0.1492001 -0.124232,-0.26847 -0.27336,-0.2635151 -0.07721,0.00302 -0.149313,0.039315 -0.197398,0.099715 z"/><path fill="#e4eff8" d="M10.913422 7.0156397c-.06468-.0001601-.127182.0234-.175694.0662L8.0920402 9.7234296C7.9099953 9.8850096 8.0243202 10.18594 8.2677344 10.1859h5.5405836c.07012.000529.137589-.0268.187581-.076l2.328738-2.6456305c.168707-.16603.0512-.4530899-.185513-.4531698zM3.5035764 7.0156397c-.06468-.0001601-.1271831.0234-.175695.0662L.68219239 9.6567694C.5001484 9.8183596.61447239 10.11928.8578874 10.11924h5.5405841c.07012.000529.1375899-.0268.1875797-.076L8.7171252 7.4688098C8.8858323 7.3027798 8.7683252 7.0157299 8.5316124 7.01564z"/><path fill="#c4dcf0" d="M 8.2602414,6.8440896 6.1431202,9.4881695 c -0.037915,0.047153 -0.058524,0.1058756 -0.05839,0.1663801 V 14.94478 c -0.00301,0.252991 0.3167231,0.365508 0.472825,0.16639 L 8.6726091,12.4645 c 0.037805,-0.04702 0.058407,-0.10554 0.05839,-0.16587 V 7.0078895 C 8.7304834,6.8586881 8.6067669,6.7394203 8.4576398,6.7443745 c -0.077199,0.00284 -0.149308,0.039261 -0.1973984,0.099715 z"/><path fill="#e4eff8" d="M 8.4685002,9.6556894 C 8.3215774,9.6551338 8.2023313,9.7743696 8.2028914,9.9212796 V 14.94643 c -8.467e-4,0.14712 0.1184828,0.26668 0.2656088,0.26611 h 5.5545368 c 0.146318,-5.82e-4 0.264385,-0.1198 0.263541,-0.26611 V 9.9212796 c 5.56e-4,-0.1461 -0.117426,-0.26501 -0.263541,-0.2655902 z"/><path fill="#d5e4f3" d="m 12.255174,13.09992 c 0.486153,-0.24554 0.717333,-0.6276 1.004567,-0.31095 0.287237,0.31661 0.01972,1.00523 -0.466594,1.25077 -0.486151,0.24553 -1.209209,0.0782 -1.293911,-0.361535 -0.06001,-0.311515 0.269785,-0.332725 0.755938,-0.578285 z"/><path fill="#e4eff8" d="M 0.79580039,9.6567194 C 0.64887639,9.6561638 0.5296314,9.7753996 0.5301914,9.9223196 V 14.94747 c -8.47e-4,0.14711 0.118483,0.26667 0.26560899,0.26611 H 6.3503374 c 0.146318,-5.82e-4 0.2643849,-0.1198 0.2635419,-0.26611 V 9.9223196 C 6.614435,9.7762096 6.4964522,9.6573095 6.3503374,9.6567194 Z"/><path fill="#c4dcf0" d="m 11.986011,1.7979096 -2.1150538,2.10152 c -0.049936,0.049652 -0.078019,0.1171615 -0.07803,0.18758 v 5.3062399 c 0.00252,0.2479842 0.3141848,0.3565469 0.4702408,0.1638001 L 12.38029,6.9129697 c 0.03736,-0.04736 0.05741,-0.1060627 0.05684,-0.1663801 v -4.7611 c -5.47e-4,-0.1483647 -0.122965,-0.267281 -0.271291,-0.263555 -0.06744,0.00146 -0.131765,0.028647 -0.179828,0.075975 z"/><path fill="#d5e4f3" d="M 4.5824845,13.10095 C 5.0686373,12.85541 5.2998183,12.47336 5.5870523,12.79 c 0.287237,0.31661 0.019719,1.00523 -0.466594,1.25077 -0.486151,0.24554 -1.209209,0.0782 -1.2939105,-0.361535 C 3.7665414,13.36772 4.0963324,13.34652 4.5824845,13.10095 Z"/><path fill="#e4eff8" d="m 4.4998665,4.1014196 c -0.1453092,5.9e-4 -0.2629612,0.11823 -0.2635422,0.26353 v 5.0282499 c 5.821e-4,0.1453001 0.118233,0.26295 0.2635422,0.26353 h 5.5566025 c 0.146116,5.556e-4 0.265025,-0.11742 0.265609,-0.26353 V 4.3649496 c -5.84e-4,-0.14611 -0.119493,-0.26408 -0.265609,-0.26353 z"/><path fill="#d5e4f3" d="M 8.5161742,7.7614797 C 8.9494043,7.5426796 9.1554184,7.2022095 9.4113853,7.4843895 c 0.2559679,0.28214 0.017571,0.8958 -0.4158009,1.1146099 -0.433229,0.2188001 -1.077576,0.0697 -1.1530571,-0.322185 -0.053477,-0.277595 0.240416,-0.2964949 0.6736469,-0.5153347 z"/><path fill="#e4eff8" d="m 7.0546744,1.7198396 c -0.06468,-1.7e-4 -0.1271831,0.0234 -0.175695,0.0661 l -2.4609311,2.32868 c -0.182045,0.16158 0.175695,0.2513299 0.175695,0.2513299 h 5.4487747 l 0.185512,-0.076 2.133141,-2.11702 c 0.169433,-0.1667399 0.05013,-0.4549499 -0.18758,-0.4531699 z"/><path fill="#d5e4f3" d="M10.654833 2.0831696c.0994-.15431.414729-.11989.570607.0545.155862.17432.166811.49278-.0062.576775-.122508.059505-.167953-.074895-.323817-.249225-.155853-.17433-.34-.22775-.24059-.38205zM14.549101 7.3590867c.127526-.1979601.532079-.1538009.732065.069921.199964.2236578.214012.6322284-.008.7399903C15.115993 8.24534 15.057689 8.072911 14.857744 7.8492531 14.657816 7.6255954 14.421562 7.5570599 14.549101 7.3590867zM3.6277921 7.8052727C3.4711742 7.6892836 3.3118684 7.6767499 3.366973 7.5340419 3.4220677 7.391336 3.685237 7.3662473 3.8418696 7.4822437 3.9984855 7.5982232 4.0611447 7.8562923 3.9341084 7.9540446 3.8441843 8.0232949 3.7844239 7.9212796 3.6277921 7.8052727z"/><path fill="#f4f8fc" d="M 8.4684992,9.6556894 C 8.3215763,9.6551338 8.2023302,9.7743696 8.2028903,9.9212896 V 14.94644 c -5.821e-4,0.10172 0.05832,0.18723 0.1421069,0.23201 -0.015981,-0.0343 -0.02659,-0.0717 -0.02636,-0.11213 V 10.04117 C 8.3180816,9.8942496 8.4373232,9.7750196 8.5842461,9.7755696 h 5.5545369 c 0.0447,1.8e-4 0.08459,0.0144 0.121436,0.0341 -0.04201,-0.0898 -0.13145,-0.15356 -0.237188,-0.15399 z"/><path fill="#f4f8fc" d="M8.7191234 9.6556894c-.04074.031882-.063408.073531-.06356.1167802-.0001121.095864.1081951.1736197.2418379.17362.1336433 3e-7.2419513-.077756.2418392-.17362-.0000096-.043199-.022489-.084842-.06304-.1167802zM.79478039 9.6567194C.64785739 9.6561696.5286114 9.7753996.5291714 9.9223196V14.94747c-.000582.10172.05831.18723.14210699.23201-.01598-.0343-.02659-.0717-.02635-.11213V10.0422C.6443734 9.8952796.76361439 9.7760496.9105374 9.7765996h5.5545368c.04471.00018.08459.0144.1214361.0341-.04201-.0898-.13145-.15356-.2371878-.15399z"/><path fill="#f4f8fc" d="M1.0454044 9.6567194c-.04074.031882-.0634083.073531-.06356.1167802-.00011214.095864.1081952.1736198.241838.17362.1336432 2e-7.2419512-.077756.241839-.17362-.0000096-.043199-.022489-.084842-.06304-.1167802zM4.4998665 4.1014196c-.1453092.00059-.2629612.11823-.2635422.26353v5.0282499c.0003969.1020101.06033.18768.145206.23149-.016301-.0342-.02723-.0713-.02739-.11161v-5.02825C4.3547224 4.3395296 4.4723744 4.2218896 4.6176833 4.2212996h5.5566037c.04428-.00017.08418.013.120918.032-.04267-.0896-.132927-.15232-.238738-.15192z"/><path fill="#f4f8fc" d="m 4.9809594,4.1014196 c -0.028937,0.030256 -0.044458,0.066353 -0.04444,0.10335 1.27e-4,0.099052 0.1092896,0.1792996 0.2439048,0.1792999 0.1346157,2e-7 0.2437791,-0.080248 0.2439061,-0.1792999 -1.34e-4,-0.037038 -0.015839,-0.073139 -0.04496,-0.10335 z"/></svg>