<svg xmlns="http://www.w3.org/2000/svg" data-name="Layer 1" viewBox="0 0 512 512"><path fill="#a8d9f5" d="M289 92.05V72.5H43v19.55a64.238 64.238 0 0 1-10.789 35.633l-8.422 12.634A64.238 64.238 0 0 0 13 175.95V454.5a50 50 0 0 0 50 50h206a50 50 0 0 0 50-50V175.95a64.238 64.238 0 0 0-10.789-35.633l-8.422-12.634A64.238 64.238 0 0 1 289 92.05Z"/><rect width="279" height="65" x="26.5" y="7.5" fill="#8b8893" rx="15"/><path fill="#fee27d" d="M319 180.122v201.78l-81-.12-225-.35v-201.79l306 .48z"/><path fill="#fff" d="M173.4 330.641a7.546 7.546 0 1 1 1.429-.136l-.099.018a7.542 7.542 0 0 1-1.33.118Zm-28.892-5.096a7.402 7.402 0 0 1-3.705-.997l-.087-.05a7.447 7.447 0 1 1 3.792 1.047Zm54.382-9.592a7.492 7.492 0 0 1-5.78-12.256l.119-.142a7.5 7.5 0 0 1 11.45 9.69l-5.725-4.845 5.707 4.867a7.52 7.52 0 0 1-5.771 2.686Zm-73.282-12.895a7.503 7.503 0 0 1-7.058-4.966l7.058-2.536-7.067 2.514a7.5 7.5 0 0 1 14.055-5.241l.07.19a7.506 7.506 0 0 1-7.058 10.039ZM209 288.374a7.5 7.5 0 0 1-7.5-7.5v-.271a7.5 7.5 0 0 1 15 0h-.002v.022h.002v.249a7.5 7.5 0 0 1-7.5 7.5Zm-83.449-14.72a7.506 7.506 0 0 1-7.058-10.04l.07-.19a7.5 7.5 0 1 1 6.988 10.23Zm73.36-13.059a7.516 7.516 0 1 1 5.658-12.42l.064.075a7.5 7.5 0 0 1-5.721 12.345Zm-54.503-9.51a7.5 7.5 0 0 1-3.751-13.999l3.744 6.498-3.706-6.52a7.5 7.5 0 0 1 7.585 12.941c-.016.009-.118.069-.134.077a7.467 7.467 0 0 1-3.738 1.003Zm29.037-5.17a7.601 7.601 0 0 1-1.116-.083c-.072-.01-.242-.039-.313-.051a7.505 7.505 0 1 1 1.43.134Zm.107-8.713-.214 1.196Z"/><path fill="#83c9ee" d="M439 274.893V261.5l-142.5-10 1.5 23.393A25.607 25.607 0 0 1 290.5 293a25.607 25.607 0 0 0-7.5 18.106v56.534l-45 14.142V474.5a30 30 0 0 0 30 30h156a30 30 0 0 0 30-30V311.106A25.607 25.607 0 0 0 446.5 293a25.607 25.607 0 0 1-7.5-18.107Z"/><path fill="#fddd5a" d="M319 255.102v126.8l-81-.12v-70.68a25.58 25.58 0 0 1 7.5-18.1 25.623 25.623 0 0 0 7.5-18.11l-1.5-23.39Z"/><path fill="#a8d9f5" d="M454 274.893V261.5H268v13.393A25.607 25.607 0 0 1 260.5 293a25.607 25.607 0 0 0-7.5 18.106v12.538l30 43.996-30 67.79v39.07a30 30 0 0 0 30 30h156a30 30 0 0 0 30-30V311.106A25.607 25.607 0 0 0 461.5 293a25.607 25.607 0 0 1-7.5-18.107Z"/><path fill="#83c9ee" d="M461.5 293a25.607 25.607 0 0 1-7.5-18.107V261.5h-45v13.393A25.607 25.607 0 0 0 416.5 293a25.606 25.606 0 0 1 7.5 18.106V474.5a30 30 0 0 1-30 30h45a30 30 0 0 0 30-30V311.106A25.606 25.606 0 0 0 461.5 293Z"/><rect width="219" height="35" x="251.5" y="226.5" fill="#8b8893" rx="10"/><path fill="#787681" d="M460.5 226.5h-45a10 10 0 0 1 10 10v15a10 10 0 0 1-10 10h45a10 10 0 0 0 10-10v-15a10 10 0 0 0-10-10Z"/><path fill="#fddd5a" d="m454 382.145-216-.477v-58.024l216 .477v58.024z"/><path fill="#fee27d" d="m469 435.906-216-.477V323.644l216 .477v111.785z"/><path fill="#fddd5a" d="M253 323.644v.099l171 .378v111.686l45 .099V324.121l-216-.477z"/></svg>