<svg xmlns="http://www.w3.org/2000/svg" enable-background="new 0 0 64 64" viewBox="0 0 64 64"><path fill="#90d8f9" d="M47.26,11.3v4.93H16.74V11.3c0-1.34,1.08-2.41,2.41-2.41h25.7C46.17,8.89,47.26,9.96,47.26,11.3z"/><path fill="#75cef9" d="M44.85,8.89h-2.72c1.33,0,2.41,1.07,2.41,2.41v0c0,1.54-1.25,2.79-2.79,2.79h-25v2.14h27.79h2.72v-2.14V11.3
		C47.26,9.97,46.18,8.89,44.85,8.89z"/><path fill="#d3effb" d="M49.38,16.23H14.62c-1.98,0-3.59,1.61-3.59,3.59v31.85c0,5.71,4.63,10.33,10.33,10.33h21.27
		c5.71,0,10.33-4.63,10.33-10.33V19.82C52.97,17.83,51.36,16.23,49.38,16.23z"/><path fill="#b1e4f9" d="M49.38,16.23h-3.16c1.98,0,3.59,1.61,3.59,3.59v31.85C49.8,57.37,45.18,62,39.47,62h3.16
		c5.71,0,10.33-4.63,10.33-10.33V19.82C52.97,17.83,51.36,16.23,49.38,16.23z"/><path fill="#f4dd45" d="M48,19.64c-2.83,0.47-3.38,2.06-7.16,2.06c-4.42,0-4.42-2.19-8.84-2.19c-4.42,0-4.42,2.19-8.84,2.19
		c-3.77,0-4.33-1.6-7.16-2.06c-0.89-0.15-1.68,0.57-1.68,1.47l0,30.56c0,3.89,3.15,7.05,7.05,7.05h21.27c3.89,0,7.05-3.15,7.05-7.05
		V21.11C49.68,20.21,48.88,19.49,48,19.64z"/><path fill="#ecbe6b" d="M48,19.64c-0.72,0.12-1.3,0.31-1.81,0.53c0.21,0.26,0.33,0.58,0.33,0.93v30.56c0,3.89-3.15,7.05-7.05,7.05
		h3.16c3.89,0,7.05-3.15,7.05-7.05V21.11C49.68,20.21,48.88,19.49,48,19.64z"/><path fill="#f4dd45" d="M22.22,7.48c0,0.49-0.07,0.96-0.2,1.41h-2.87c-1.33,0-2.41,1.07-2.41,2.41v1.65c-3.02,0-5.48-2.45-5.48-5.48
		S13.72,2,16.74,2S22.22,4.45,22.22,7.48z"/><path fill="#ecbe6b" d="M16.74,12.95V11.3c0-1.34,1.08-2.41,2.41-2.41h2.87c0.13-0.45,0.2-0.92,0.2-1.41c0-0.25-0.04-0.48-0.07-0.72
		h-4.82c-1.41,0-2.57,1.39-2.57,3.11v2.71C15.38,12.81,16.04,12.95,16.74,12.95z"/><path d="M49.38,15.23h-1.12V11.3c0-1.88-1.53-3.41-3.41-3.41H23.19c0.01-0.14,0.03-0.27,0.03-0.41c0-3.57-2.91-6.48-6.48-6.48
		s-6.48,2.91-6.48,6.48c0,3.23,2.38,5.91,5.48,6.39v1.36h-1.12c-2.53,0-4.59,2.06-4.59,4.59v31.85c0,6.25,5.08,11.33,11.33,11.33
		h21.27c6.25,0,11.33-5.08,11.33-11.33V19.81C53.97,17.28,51.91,15.23,49.38,15.23z M12.27,7.48c0-2.47,2.01-4.48,4.48-4.48
		s4.48,2.01,4.48,4.48c0,0.14-0.01,0.28-0.03,0.41h-2.04c-1.88,0-3.41,1.53-3.41,3.41v0.53C13.76,11.37,12.27,9.6,12.27,7.48z
		 M17.74,11.3c0-0.78,0.63-1.41,1.41-1.41h25.7c0.78,0,1.41,0.63,1.41,1.41v3.93H17.74V11.3z M51.97,51.67
		c0,5.15-4.19,9.33-9.33,9.33H21.36c-5.15,0-9.33-4.19-9.33-9.33V19.81c0-1.43,1.16-2.59,2.59-2.59c0.1,0,35.29,0,34.76,0
		c1.43,0,2.59,1.16,2.59,2.59V51.67z"/><path d="M47.83,18.65c-1.32,0.22-2.22,0.67-3.02,1.06c-1.07,0.53-2,0.99-3.98,0.99c-1.98,0-2.9-0.46-3.98-0.99
		c-1.13-0.56-2.42-1.2-4.87-1.2c-2.44,0-3.73,0.64-4.86,1.2c-1.07,0.53-2,0.99-3.97,0.99c-1.98,0-2.9-0.46-3.98-0.99
		c-0.8-0.39-1.7-0.84-3.02-1.06c-0.7-0.12-1.42,0.08-1.96,0.55c-0.56,0.48-0.88,1.17-0.88,1.9l0,30.56c0,2.15,0.84,4.17,2.36,5.69
		c1.52,1.52,3.54,2.36,5.69,2.36h21.27c4.44,0,8.05-3.61,8.05-8.04V21.1c0-0.73-0.32-1.43-0.88-1.9
		C49.25,18.74,48.53,18.54,47.83,18.65z M48.68,51.67c0,3.33-2.71,6.04-6.05,6.04H21.36c-1.61,0-3.13-0.63-4.27-1.77
		c-1.14-1.14-1.77-2.66-1.77-4.28l0-30.56c0-0.15,0.06-0.28,0.18-0.38c0.06-0.05,0.15-0.11,0.28-0.11c0.67,0,1.92,0.59,2.52,0.88
		c1.13,0.56,2.42,1.2,4.86,1.2c2.44,0,3.73-0.64,4.86-1.2c1.07-0.53,2-0.99,3.97-0.99c1.98,0,2.9,0.46,3.98,0.99
		c1.13,0.56,2.42,1.2,4.87,1.2c2.44,0,3.73-0.64,4.87-1.2c0.77-0.38,1.43-0.71,2.46-0.88c0.16-0.03,0.27,0.04,0.35,0.1
		c0.11,0.1,0.18,0.23,0.18,0.38V51.67z"/></svg>