<svg width="28" height="27" viewBox="0 0 28 27" fill="none" xmlns="http://www.w3.org/2000/svg">
<path d="M3.67011 26.4606H15.7719H15.7774C16.5799 26.4606 17.4849 26.1835 18.2858 25.5649C18.9114 26.1139 19.6891 26.4358 20.5412 26.4358C22.586 26.4358 24.4235 24.5733 24.8156 22.1027C25.1907 19.7003 24.1491 16.1879 21.7126 15.8341C20.9123 15.7183 20.0997 15.977 19.3381 16.5573C18.6885 15.4127 17.6352 14.3101 16.3374 14.0547V8.58129C16.3374 6.51611 15.2532 4.64042 13.5036 3.54325C13.8467 3.21218 14.0356 2.76964 14.0356 2.29671C14.0356 1.32768 13.2158 0.539337 12.2085 0.539337H7.23904C6.22544 0.539337 5.41193 1.32288 5.41193 2.29671C5.41193 2.7744 5.6108 3.21752 5.94589 3.54195C4.19516 4.63907 3.11011 6.51535 3.11011 8.58129V25.9206C3.11011 26.2189 3.3606 26.4606 3.67011 26.4606ZM13.0425 25.3806H4.23011V9.61911H15.2174V14.0512C12.678 14.5443 11.0901 18.1664 11.0901 20.7152C11.0901 22.4134 11.7546 24.2428 13.0425 25.3806ZM19.3332 20.7152C19.3332 22.9095 18.0068 25.3443 15.8172 25.3764C15.8025 25.3766 15.7883 25.3793 15.7736 25.3793C13.8092 25.3793 12.2112 23.2863 12.2112 20.7139C12.2112 18.5333 13.6876 15.0801 15.7755 15.0779C15.7784 15.0779 15.7812 15.0787 15.7841 15.0787C17.8922 15.0974 19.3332 18.5456 19.3332 20.7152ZM21.5464 16.902C23.2632 17.1514 23.9855 20.1684 23.7082 21.9402C23.3992 23.8875 22.038 25.3558 20.5412 25.3558C20.0238 25.3558 19.5102 25.1717 19.0723 24.8021C19.8857 23.8053 20.4554 22.3304 20.4554 20.7139C20.4554 19.6455 20.1763 18.4414 19.8264 17.568C20.4056 17.0631 20.999 16.824 21.5464 16.902ZM7.23904 1.61934H12.2085C12.5984 1.61934 12.9156 1.92309 12.9156 2.29671C12.9156 2.69005 12.5834 2.97382 12.2583 2.97382C12.1998 2.97382 6.9068 2.97636 7.24208 2.9762C6.76965 2.94558 6.53193 2.63384 6.53193 2.29671C6.53193 1.9232 6.84083 1.61934 7.23904 1.61934ZM7.30081 4.0562C7.3576 4.0562 12.4738 4.05862 12.1513 4.05846C14.0037 4.84211 15.1969 6.58636 15.2142 8.53911H4.23336C4.2506 6.58469 5.4457 4.83887 7.30081 4.0562Z" fill="#BBBBBB"/>
<path d="M9.9701 23.2207H7.66452C7.00607 23.2207 6.4701 22.7041 6.4701 22.0692V18.0907C6.4701 17.7925 6.21967 17.5507 5.9101 17.5507C5.60059 17.5507 5.3501 17.7925 5.3501 18.0907V22.0692C5.3501 23.2998 6.38811 24.3007 7.66452 24.3007H9.9701C10.2797 24.3007 10.5301 24.0589 10.5301 23.7607C10.5301 23.4625 10.2797 23.2207 9.9701 23.2207Z" fill="#BBBBBB"/>
</svg>
