<svg width="28" height="29" viewBox="0 0 28 29" fill="none" xmlns="http://www.w3.org/2000/svg">
<path d="M14 24.1842C13.3577 24.1853 12.7258 24.0157 12.1647 23.6917C6.17972 20.2166 2.88403 15.936 2.88403 11.6385C2.88403 7.81052 5.46966 4.81219 8.77016 4.81219C9.75294 4.81307 10.7249 5.02454 11.625 5.43332C12.525 5.8421 13.3336 6.43934 14 7.18748C14.6664 6.43934 15.4751 5.8421 16.3751 5.43332C17.2752 5.02454 18.2471 4.81307 19.2299 4.81219C22.5304 4.81219 25.116 7.81052 25.116 11.6385C25.116 15.936 21.8203 20.2166 15.8353 23.6917C15.2743 24.0156 14.6424 24.1852 14 24.1842ZM8.77016 6.17157C6.16266 6.17157 4.19653 8.52193 4.19653 11.6385C4.19653 15.4226 7.25422 19.2818 12.8061 22.5054C13.1712 22.7158 13.5822 22.8262 14 22.8262C14.4179 22.8262 14.8288 22.7158 15.194 22.5054C20.7458 19.2818 23.8035 15.4226 23.8035 11.6385C23.8035 8.52193 21.8374 6.17157 19.2299 6.17157C18.3182 6.17466 17.4198 6.39895 16.6069 6.82647C15.794 7.25399 15.089 7.87284 14.5487 8.6334C14.4898 8.72824 14.4085 8.80589 14.3125 8.85895C14.2164 8.91202 14.1089 8.93873 14 8.93654C13.8921 8.93633 13.7859 8.90856 13.6908 8.85568C13.5957 8.80281 13.5147 8.72646 13.4549 8.6334C12.9142 7.87234 12.2087 7.2532 11.3951 6.82566C10.5815 6.39811 9.68248 6.17409 8.77016 6.17157Z" fill="#BBBBBB"/>
</svg>
