<svg width="27" height="23" viewBox="0 0 27 23" fill="none" xmlns="http://www.w3.org/2000/svg">
<path d="M0 7.71428C0 9.57143 0.27835 12.4286 2.7835 15C5.01031 17.2857 12.3866 22.4286 12.6649 22.7143C12.9433 22.8571 13.2216 23 13.5 23C13.7784 23 14.0567 22.8571 14.3351 22.7143C14.6134 22.4286 21.9897 17.4286 24.2165 15C26.7216 12.4286 27 9.57143 27 7.71428C27 3.42857 23.6598 0 19.4845 0C17.2577 0 15.0309 1.28571 13.6392 3.28571C12.2474 1.28571 10.0206 0 7.51546 0C3.47938 0 0 3.42857 0 7.71428Z" fill="#E00808" fill-opacity="0.87"/>
</svg>
