<svg width="201" height="83" viewBox="0 0 201 83" fill="none" xmlns="http://www.w3.org/2000/svg">
<path d="M47.448 45.448C48 45.448 48.396 45.568 48.636 45.808C48.9 46.048 49.032 46.36 49.032 46.744C49.032 47.368 48.84 47.92 48.456 48.4C48.096 48.88 47.52 49.132 46.728 49.156C44.832 49.18 43.128 49.036 41.616 48.724C39.936 52.3 37.908 55.276 35.532 57.652C33.18 60.004 30.852 61.18 28.548 61.18C26.436 61.18 24.852 60.064 23.796 57.832C22.74 55.576 22.14 52.564 21.996 48.796C20.556 52.972 18.924 56.08 17.1 58.12C15.3 60.16 13.38 61.18 11.34 61.18C9.036 61.18 7.296 59.752 6.12 56.896C4.944 54.016 4.356 50.152 4.356 45.304C4.356 41.776 4.668 37.9 5.292 33.676C5.46 32.476 5.76 31.648 6.192 31.192C6.648 30.712 7.356 30.472 8.316 30.472C9.036 30.472 9.588 30.628 9.972 30.94C10.38 31.252 10.584 31.828 10.584 32.668C10.584 32.836 10.56 33.16 10.512 33.64C9.792 38.56 9.432 42.748 9.432 46.204C9.432 49.42 9.708 51.904 10.26 53.656C10.812 55.408 11.556 56.284 12.492 56.284C13.332 56.284 14.34 55.408 15.516 53.656C16.716 51.88 17.904 49.264 19.08 45.808C20.256 42.328 21.252 38.188 22.068 33.388C22.26 32.284 22.608 31.528 23.112 31.12C23.64 30.688 24.348 30.472 25.236 30.472C25.98 30.472 26.52 30.64 26.856 30.976C27.216 31.288 27.396 31.768 27.396 32.416C27.396 32.8 27.372 33.1 27.324 33.316C26.652 37.228 26.316 41.14 26.316 45.052C26.316 47.716 26.4 49.84 26.568 51.424C26.76 53.008 27.108 54.22 27.612 55.06C28.14 55.876 28.896 56.284 29.88 56.284C31.032 56.284 32.316 55.42 33.732 53.692C35.148 51.94 36.444 49.768 37.62 47.176C36.156 46.264 35.052 45.088 34.308 43.648C33.564 42.184 33.192 40.504 33.192 38.608C33.192 36.712 33.48 35.116 34.056 33.82C34.656 32.5 35.46 31.516 36.468 30.868C37.5 30.22 38.64 29.896 39.888 29.896C41.424 29.896 42.636 30.448 43.524 31.552C44.436 32.656 44.892 34.168 44.892 36.088C44.892 38.8 44.304 41.812 43.128 45.124C44.352 45.34 45.792 45.448 47.448 45.448ZM36.828 38.356C36.828 40.708 37.584 42.448 39.096 43.576C40.032 40.888 40.5 38.668 40.5 36.916C40.5 35.908 40.368 35.176 40.104 34.72C39.84 34.24 39.48 34 39.024 34C38.376 34 37.848 34.384 37.44 35.152C37.032 35.896 36.828 36.964 36.828 38.356ZM65.5127 52.972C65.8247 52.972 66.0647 53.116 66.2327 53.404C66.4247 53.692 66.5207 54.088 66.5207 54.592C66.5207 55.552 66.2927 56.296 65.8367 56.824C64.7327 58.096 63.5927 59.14 62.4167 59.956C61.2647 60.772 59.9447 61.18 58.4567 61.18C57.2327 61.18 56.3087 60.832 55.6847 60.136C55.0607 59.416 54.7487 58.384 54.7487 57.04C54.7487 56.368 54.9167 55.168 55.2527 53.44C55.5647 51.928 55.7207 50.884 55.7207 50.308C55.7207 49.924 55.5887 49.732 55.3247 49.732C55.0127 49.732 54.5687 50.14 53.9927 50.956C53.4167 51.748 52.8407 52.804 52.2647 54.124C51.6887 55.444 51.2207 56.836 50.8607 58.3C50.4047 60.22 49.2767 61.18 47.4767 61.18C46.7567 61.18 46.2767 60.928 46.0367 60.424C45.8207 59.896 45.7127 58.96 45.7127 57.616C45.7127 56.848 45.7247 56.236 45.7487 55.78L45.7847 52.9C45.7847 49.204 46.1567 45.352 46.9007 41.344C47.6687 37.336 48.7847 33.976 50.2487 31.264C51.7367 28.528 53.5127 27.16 55.5767 27.16C56.6807 27.16 57.5687 27.64 58.2407 28.6C58.9367 29.536 59.2847 30.76 59.2847 32.272C59.2847 34.696 58.5767 37.216 57.1607 39.832C55.7447 42.424 53.4407 45.46 50.2487 48.94C50.1767 50.188 50.1407 51.472 50.1407 52.792C50.9327 50.752 51.8087 49.096 52.7687 47.824C53.7527 46.528 54.7127 45.604 55.6487 45.052C56.6087 44.5 57.4847 44.224 58.2767 44.224C59.8367 44.224 60.6167 45.004 60.6167 46.564C60.6167 47.5 60.3527 49.192 59.8247 51.64C59.3687 53.728 59.1407 55.108 59.1407 55.78C59.1407 56.74 59.4887 57.22 60.1847 57.22C60.6647 57.22 61.2287 56.932 61.8767 56.356C62.5487 55.756 63.4367 54.796 64.5407 53.476C64.8287 53.14 65.1527 52.972 65.5127 52.972ZM54.8207 30.724C54.3887 30.724 53.9087 31.348 53.3807 32.596C52.8527 33.82 52.3367 35.488 51.8327 37.6C51.3527 39.688 50.9567 41.968 50.6447 44.44C52.1327 42.688 53.3567 40.78 54.3167 38.716C55.3007 36.652 55.7927 34.78 55.7927 33.1C55.7927 32.332 55.7087 31.744 55.5407 31.336C55.3727 30.928 55.1327 30.724 54.8207 30.724ZM68.031 61.18C66.543 61.18 65.355 60.64 64.467 59.56C63.579 58.48 63.135 57.064 63.135 55.312C63.135 53.392 63.579 51.58 64.467 49.876C65.355 48.148 66.531 46.768 67.995 45.736C69.483 44.68 71.055 44.152 72.711 44.152C73.239 44.152 73.587 44.26 73.755 44.476C73.947 44.668 74.103 45.028 74.223 45.556C74.727 45.46 75.255 45.412 75.807 45.412C76.983 45.412 77.571 45.832 77.571 46.672C77.571 47.176 77.391 48.376 77.031 50.272C76.479 53.032 76.203 54.952 76.203 56.032C76.203 56.392 76.287 56.68 76.455 56.896C76.647 57.112 76.887 57.22 77.175 57.22C77.631 57.22 78.183 56.932 78.831 56.356C79.479 55.756 80.355 54.796 81.459 53.476C81.747 53.14 82.071 52.972 82.431 52.972C82.743 52.972 82.983 53.116 83.151 53.404C83.343 53.692 83.439 54.088 83.439 54.592C83.439 55.552 83.211 56.296 82.755 56.824C81.771 58.048 80.727 59.08 79.623 59.92C78.519 60.76 77.451 61.18 76.419 61.18C75.627 61.18 74.895 60.916 74.223 60.388C73.575 59.836 73.083 59.092 72.747 58.156C71.499 60.172 69.927 61.18 68.031 61.18ZM69.327 57.544C69.855 57.544 70.359 57.232 70.839 56.608C71.319 55.984 71.667 55.156 71.883 54.124L73.215 47.5C72.207 47.524 71.271 47.908 70.407 48.652C69.567 49.372 68.895 50.332 68.391 51.532C67.887 52.732 67.635 54.004 67.635 55.348C67.635 56.092 67.779 56.644 68.067 57.004C68.379 57.364 68.799 57.544 69.327 57.544ZM86.4532 47.644C86.4052 48.844 86.3812 49.78 86.3812 50.452C86.3812 52.18 86.4652 53.536 86.6332 54.52C86.8252 55.48 87.1252 56.176 87.5332 56.608C87.9652 57.016 88.5532 57.22 89.2972 57.22C89.6812 57.22 90.1372 57.1 90.6652 56.86C91.1932 56.62 91.6732 56.308 92.1052 55.924C92.3692 55.684 92.6332 55.564 92.8972 55.564C93.1852 55.564 93.4132 55.732 93.5812 56.068C93.7732 56.38 93.8692 56.764 93.8692 57.22C93.8692 57.676 93.7732 58.12 93.5812 58.552C93.4132 58.984 93.1492 59.344 92.7892 59.632C91.5412 60.664 90.1252 61.18 88.5412 61.18C86.2612 61.18 84.5932 60.232 83.5372 58.336C82.4812 56.416 81.9532 53.92 81.9532 50.848C81.9532 49.792 81.9892 48.724 82.0612 47.644H80.6572C79.9372 47.644 79.4452 47.512 79.1812 47.248C78.9412 46.984 78.8212 46.564 78.8212 45.988C78.8212 44.644 79.3612 43.972 80.4412 43.972H82.4932C82.9012 41.332 83.5252 38.92 84.3652 36.736C85.2052 34.552 86.2132 32.812 87.3892 31.516C88.5892 30.22 89.8732 29.572 91.2412 29.572C92.2492 29.572 93.0412 30.016 93.6172 30.904C94.1932 31.792 94.4812 32.908 94.4812 34.252C94.4812 37.972 92.9212 41.212 89.8012 43.972H93.8332C94.2172 43.972 94.4932 44.056 94.6612 44.224C94.8292 44.392 94.9132 44.704 94.9132 45.16C94.9132 46.816 93.5572 47.644 90.8452 47.644H86.4532ZM90.2692 33.028C89.9092 33.028 89.5012 33.484 89.0452 34.396C88.6132 35.284 88.1932 36.532 87.7852 38.14C87.4012 39.724 87.0772 41.488 86.8132 43.432C88.2292 42.208 89.2852 40.84 89.9812 39.328C90.7012 37.792 91.0612 36.4 91.0612 35.152C91.0612 33.736 90.7972 33.028 90.2692 33.028ZM151.764 37.96C151.764 40 151.044 41.764 149.604 43.252C148.164 44.716 146.064 45.772 143.304 46.42C144.792 46.828 145.92 47.5 146.688 48.436C147.456 49.348 147.84 50.404 147.84 51.604C147.84 53.5 147.24 55.144 146.04 56.536C144.864 57.928 143.136 59.008 140.856 59.776C138.576 60.52 135.828 60.892 132.612 60.892C131.412 60.892 130.452 60.856 129.732 60.784C129.708 61.456 129.42 61.96 128.868 62.296C128.316 62.632 127.608 62.8 126.744 62.8C125.88 62.8 125.28 62.608 124.944 62.224C124.632 61.84 124.5 61.276 124.548 60.532C124.764 57.172 125.184 53.656 125.808 49.984C126.432 46.288 127.224 42.724 128.184 39.292C128.352 38.692 128.688 38.272 129.192 38.032C129.696 37.792 130.356 37.672 131.172 37.672C132.636 37.672 133.368 38.08 133.368 38.896C133.368 39.232 133.296 39.616 133.152 40.048C132.528 41.92 131.904 44.464 131.28 47.68C130.656 50.872 130.212 53.92 129.948 56.824C131.1 56.92 132.036 56.968 132.756 56.968C136.116 56.968 138.576 56.488 140.136 55.528C141.72 54.544 142.512 53.296 142.512 51.784C142.512 50.728 142.056 49.84 141.144 49.12C140.256 48.4 138.756 48.004 136.644 47.932C136.164 47.908 135.828 47.788 135.636 47.572C135.444 47.356 135.348 47.008 135.348 46.528C135.348 45.832 135.492 45.268 135.78 44.836C136.068 44.404 136.596 44.176 137.364 44.152C139.068 44.104 140.604 43.852 141.972 43.396C143.364 42.94 144.456 42.304 145.248 41.488C146.04 40.648 146.436 39.676 146.436 38.572C146.436 37.18 145.752 36.088 144.384 35.296C143.016 34.48 140.916 34.072 138.084 34.072C135.516 34.072 133.032 34.408 130.632 35.08C128.232 35.728 126.192 36.556 124.512 37.564C123.744 38.02 123.096 38.248 122.568 38.248C122.136 38.248 121.8 38.104 121.56 37.816C121.344 37.504 121.236 37.12 121.236 36.664C121.236 36.064 121.356 35.548 121.596 35.116C121.86 34.684 122.472 34.192 123.432 33.64C125.448 32.488 127.812 31.588 130.524 30.94C133.236 30.292 136.008 29.968 138.84 29.968C143.184 29.968 146.424 30.7 148.56 32.164C150.696 33.628 151.764 35.56 151.764 37.96ZM155.008 61.18C153.52 61.18 152.332 60.64 151.444 59.56C150.556 58.48 150.112 57.064 150.112 55.312C150.112 53.392 150.556 51.58 151.444 49.876C152.332 48.148 153.508 46.768 154.972 45.736C156.46 44.68 158.032 44.152 159.688 44.152C160.216 44.152 160.564 44.26 160.732 44.476C160.924 44.668 161.08 45.028 161.2 45.556C161.704 45.46 162.232 45.412 162.784 45.412C163.96 45.412 164.548 45.832 164.548 46.672C164.548 47.176 164.368 48.376 164.008 50.272C163.456 53.032 163.18 54.952 163.18 56.032C163.18 56.392 163.264 56.68 163.432 56.896C163.624 57.112 163.864 57.22 164.152 57.22C164.608 57.22 165.16 56.932 165.808 56.356C166.456 55.756 167.332 54.796 168.436 53.476C168.724 53.14 169.048 52.972 169.408 52.972C169.72 52.972 169.96 53.116 170.128 53.404C170.32 53.692 170.416 54.088 170.416 54.592C170.416 55.552 170.188 56.296 169.732 56.824C168.748 58.048 167.704 59.08 166.6 59.92C165.496 60.76 164.428 61.18 163.396 61.18C162.604 61.18 161.872 60.916 161.2 60.388C160.552 59.836 160.06 59.092 159.724 58.156C158.476 60.172 156.904 61.18 155.008 61.18ZM156.304 57.544C156.832 57.544 157.336 57.232 157.816 56.608C158.296 55.984 158.644 55.156 158.86 54.124L160.192 47.5C159.184 47.524 158.248 47.908 157.384 48.652C156.544 49.372 155.872 50.332 155.368 51.532C154.864 52.732 154.612 54.004 154.612 55.348C154.612 56.092 154.756 56.644 155.044 57.004C155.356 57.364 155.776 57.544 156.304 57.544ZM188.298 52.972C188.61 52.972 188.85 53.116 189.018 53.404C189.21 53.692 189.306 54.088 189.306 54.592C189.306 55.552 189.078 56.296 188.622 56.824C187.542 58.144 186.45 59.2 185.346 59.992C184.242 60.784 182.934 61.18 181.422 61.18C179.574 61.18 178.086 60.652 176.958 59.596C175.83 58.54 175.266 57.136 175.266 55.384C175.266 54.448 175.746 53.776 176.706 53.368C177.762 52.912 178.518 52.432 178.974 51.928C179.43 51.4 179.658 50.764 179.658 50.02C179.658 49.588 179.562 49.264 179.37 49.048C179.202 48.832 178.986 48.724 178.722 48.724C178.074 48.724 177.354 49.192 176.562 50.128C175.794 51.064 175.074 52.276 174.402 53.764C173.73 55.228 173.202 56.74 172.818 58.3C172.554 59.428 172.242 60.196 171.882 60.604C171.546 60.988 171.006 61.18 170.262 61.18C169.518 61.18 168.966 60.916 168.606 60.388C168.27 59.836 168.042 58.996 167.922 57.868C167.802 56.74 167.742 55.084 167.742 52.9C167.742 49.204 168.114 45.352 168.858 41.344C169.626 37.336 170.742 33.976 172.206 31.264C173.694 28.528 175.47 27.16 177.534 27.16C178.638 27.16 179.526 27.64 180.198 28.6C180.894 29.536 181.242 30.76 181.242 32.272C181.242 34.696 180.534 37.216 179.118 39.832C177.702 42.424 175.398 45.46 172.206 48.94C172.134 50.188 172.098 51.472 172.098 52.792C173.25 49.792 174.57 47.62 176.058 46.276C177.546 44.908 178.938 44.224 180.234 44.224C181.434 44.224 182.394 44.632 183.114 45.448C183.858 46.264 184.23 47.272 184.23 48.472C184.23 49.792 183.894 51.004 183.222 52.108C182.55 53.212 181.398 54.196 179.766 55.06C179.862 55.708 180.15 56.236 180.63 56.644C181.134 57.028 181.734 57.22 182.43 57.22C183.174 57.22 183.894 56.932 184.59 56.356C185.286 55.78 186.198 54.82 187.326 53.476C187.614 53.14 187.938 52.972 188.298 52.972ZM176.778 30.724C176.346 30.724 175.866 31.348 175.338 32.596C174.81 33.82 174.294 35.488 173.79 37.6C173.31 39.688 172.914 41.968 172.602 44.44C174.09 42.688 175.314 40.78 176.274 38.716C177.258 36.652 177.75 34.78 177.75 33.1C177.75 32.332 177.666 31.744 177.498 31.336C177.33 30.928 177.09 30.724 176.778 30.724ZM199.292 54.052C199.604 54.052 199.844 54.196 200.012 54.484C200.204 54.772 200.3 55.168 200.3 55.672C200.3 56.536 200.096 57.28 199.688 57.904C199.016 58.936 198.128 59.74 197.024 60.316C195.944 60.892 194.648 61.18 193.136 61.18C190.832 61.18 189.044 60.496 187.772 59.128C186.5 57.736 185.864 55.864 185.864 53.512C185.864 51.856 186.212 50.32 186.908 48.904C187.604 47.464 188.564 46.324 189.788 45.484C191.036 44.644 192.44 44.224 194 44.224C195.392 44.224 196.508 44.644 197.348 45.484C198.188 46.3 198.608 47.416 198.608 48.832C198.608 50.488 198.008 51.916 196.808 53.116C195.632 54.292 193.616 55.228 190.76 55.924C191.336 57.028 192.308 57.58 193.676 57.58C194.66 57.58 195.464 57.352 196.088 56.896C196.736 56.44 197.48 55.672 198.32 54.592C198.608 54.232 198.932 54.052 199.292 54.052ZM193.388 47.752C192.5 47.752 191.744 48.268 191.12 49.3C190.52 50.332 190.22 51.58 190.22 53.044V53.116C191.636 52.78 192.752 52.276 193.568 51.604C194.384 50.932 194.792 50.152 194.792 49.264C194.792 48.808 194.66 48.448 194.396 48.184C194.156 47.896 193.82 47.752 193.388 47.752Z" fill="white"/>
<path d="M116.504 55.624C117.176 55.624 117.688 55.848 118.04 56.296C118.392 56.744 118.568 57.304 118.568 57.976C118.568 58.808 118.296 59.56 117.752 60.232C117.24 60.872 116.536 61.192 115.64 61.192C114.104 61.192 111.816 61.08 108.776 60.856C108.168 60.824 107.048 60.76 105.416 60.664C103.784 60.568 102.504 60.52 101.576 60.52C101.16 60.52 100.552 60.664 99.7523 60.952C99.5923 60.984 99.2723 61.064 98.7923 61.192C98.3443 61.32 97.9603 61.384 97.6403 61.384C97.1283 61.384 96.6963 61.16 96.3443 60.712C96.0243 60.232 95.8643 59.528 95.8643 58.6C95.8643 57.576 96.1043 56.792 96.5843 56.248C97.0643 55.672 97.8163 55.16 98.8403 54.712C101.016 53.752 103.064 52.536 104.984 51.064C106.936 49.56 108.488 47.944 109.64 46.216C110.824 44.488 111.416 42.84 111.416 41.272C111.416 40.024 111.128 39.112 110.552 38.536C110.008 37.928 109.128 37.624 107.912 37.624C106.504 37.624 105.368 38.008 104.504 38.776C103.672 39.544 103.256 40.616 103.256 41.992C103.256 43.88 102.312 44.824 100.424 44.824C99.5283 44.824 98.8243 44.568 98.3123 44.056C97.8323 43.544 97.5923 42.808 97.5923 41.848C97.5923 40.248 98.0083 38.776 98.8403 37.432C99.6723 36.088 100.92 35.016 102.584 34.216C104.248 33.384 106.28 32.968 108.68 32.968C111.56 32.968 113.816 33.688 115.448 35.128C117.08 36.568 117.896 38.568 117.896 41.128C117.896 43.56 116.824 46.104 114.68 48.76C112.568 51.416 109.512 53.768 105.512 55.816L116.504 55.624Z" fill="#D4AF37"/>
</svg>
